<svg version="1.1" id="Layer_1" xmlns="http://www.w3.org/2000/svg" xmlns:xlink="http://www.w3.org/1999/xlink" x="0px" y="0px"
	 width="100%" viewBox="0 0 211 213" enable-background="new 0 0 211 213" xml:space="preserve">
<path fill="#F2F2F1" opacity="1.000000" stroke="none" 
	d="
M1.000000,109.000000 
	C1.000000,73.018852 1.000000,37.037701 1.000000,1.028276 
	C71.277641,1.028276 141.555298,1.028276 211.916473,1.028276 
	C211.916473,71.907059 211.916473,142.814240 211.916473,213.860718 
	C141.666840,213.860718 71.333466,213.860718 1.000000,213.860718 
	C1.000000,183.238647 1.000000,152.587982 1.373656,121.554108 
	C2.153817,121.830063 2.720267,122.439644 2.942399,123.155998 
	C5.531429,131.505249 6.857340,140.504929 10.842598,148.114838 
	C23.702976,172.671951 42.570038,191.122940 68.951538,201.190048 
	C74.359718,203.253769 79.114151,202.226669 83.897339,199.514984 
	C83.851913,199.056488 83.825333,198.872925 84.125023,198.617477 
	C85.630539,198.045792 86.809784,197.546021 88.365166,197.018341 
	C90.824524,196.488327 92.907738,195.986221 95.362717,195.423798 
	C96.921890,195.027603 98.109299,194.691772 99.708252,194.344513 
	C103.498764,193.575668 106.883644,192.180313 110.255318,192.211517 
	C115.215492,192.257385 118.668953,190.956070 120.289169,186.127533 
	C125.063011,187.904861 129.561523,189.438629 134.421417,191.053482 
	C135.520004,191.037704 136.257202,190.940857 137.337616,191.029861 
	C139.436279,191.398560 141.191711,191.581406 143.343475,191.837494 
	C144.815216,191.888733 145.890640,191.866745 147.386047,191.903656 
	C150.935883,191.129242 154.394821,190.881119 157.128708,189.343689 
	C163.267303,185.891617 169.045883,181.799362 174.943954,178.315964 
	C171.951996,181.739716 168.987122,184.815262 166.022247,187.890793 
	C166.301102,188.223846 166.579971,188.556885 166.858841,188.889938 
	C170.148544,187.507996 174.139694,186.881241 176.594849,184.600784 
	C183.614639,178.080521 190.249786,171.098480 196.572266,163.891052 
	C201.183228,158.634705 199.893661,155.809814 192.524261,154.027466 
	C191.415817,154.036697 190.676147,154.061935 189.619568,154.074219 
	C188.880905,154.026062 188.459198,153.990875 187.903015,153.703735 
	C186.894791,153.527527 186.021057,153.603271 184.913635,153.389282 
	C183.447449,153.121017 182.214935,153.142502 180.519043,153.098053 
	C171.041275,152.288544 162.026871,151.544968 153.009033,150.420532 
	C152.388184,149.045868 152.001297,147.589417 151.109970,147.145294 
	C148.476028,145.832809 145.663712,144.861923 142.882843,143.864243 
	C137.581406,141.962296 133.860977,138.985092 134.883606,132.265717 
	C136.535553,128.092285 138.158081,124.268295 139.516281,121.067268 
	C136.457733,119.504456 133.984467,118.240700 131.393372,116.665726 
	C130.477386,113.626106 130.504822,110.085396 125.710266,110.858604 
	C123.954056,109.497643 122.493256,108.276390 120.706261,107.042648 
	C119.945000,107.017021 119.509933,107.003868 118.801750,106.686493 
	C115.754250,106.234467 112.979866,106.086670 110.237274,105.600281 
	C113.757271,103.498657 117.254158,101.752548 120.731728,99.968781 
	C126.541527,96.988731 132.338989,93.984612 138.454102,90.872681 
	C139.358658,90.182327 140.043610,89.679077 140.529007,89.027222 
	C148.844635,77.859886 148.552780,68.006714 137.277313,59.648018 
	C137.119812,59.256863 137.025833,59.114094 136.850632,58.646019 
	C136.190720,57.799953 135.612030,57.279202 134.761993,56.514263 
	C143.890549,51.704884 152.621872,47.104786 161.472168,42.442005 
	C162.019989,44.224228 162.454361,45.637383 163.073929,47.653069 
	C166.907578,45.308895 168.614685,42.583817 167.135971,38.850319 
	C165.527725,34.789742 162.529877,37.158337 160.018829,37.893814 
	C159.438324,38.063839 158.959717,38.581757 158.172943,39.179848 
	C154.149750,40.799568 150.433472,42.325565 146.612534,43.515480 
	C143.099075,44.609642 139.472961,45.342056 135.603851,46.028374 
	C134.143692,43.899342 133.003769,41.958355 131.803772,40.055248 
	C126.854744,32.206474 119.931564,27.246889 110.472282,28.009306 
	C105.205948,28.433775 100.090973,30.736141 94.587616,31.982140 
	C90.720482,28.998276 86.960579,29.222641 82.935425,30.666901 
	C81.416222,29.283424 80.159729,28.024406 78.669037,27.177696 
	C75.411835,25.327595 72.035645,23.686977 68.713898,21.689642 
	C67.840187,21.329952 66.960648,21.241405 65.704956,21.083332 
	C63.612087,20.731056 61.895374,20.448307 59.797546,20.148378 
	C53.370087,24.168901 47.295166,28.165646 41.332912,32.323933 
	C40.868065,32.648136 41.191479,34.102577 41.146584,35.297417 
	C41.176460,35.737385 41.208290,35.911640 41.096695,36.343708 
	C40.897507,38.764942 40.841736,40.928371 40.824631,43.260536 
	C40.863304,43.429279 40.861427,43.775505 40.470528,43.807930 
	C32.778782,44.656040 28.658854,49.840153 24.245277,55.209961 
	C19.855722,60.935940 20.651962,66.677147 26.212080,70.098846 
	C26.685690,70.802582 26.870728,71.388412 26.792252,72.208611 
	C26.490988,73.382370 26.030416,74.697929 26.480244,75.203537 
	C31.528236,80.877548 36.716335,86.426910 41.923798,92.397484 
	C41.700108,94.214798 41.419388,95.644409 40.846512,96.872025 
	C39.307167,95.456749 38.246548,93.908592 36.778946,93.090942 
	C31.716167,90.270332 28.404871,83.401382 20.588947,86.007736 
	C19.297531,86.379845 16.520170,84.823296 17.817600,88.175964 
	C15.934406,89.304939 14.343914,90.227623 12.573244,91.162971 
	C12.393066,91.175629 12.037106,91.114059 11.914932,90.807274 
	C10.864215,90.003067 9.935672,89.505653 8.715220,89.037254 
	C8.312462,89.716637 8.201612,90.366989 8.086124,91.391533 
	C8.048779,92.513367 8.016072,93.261017 7.616264,94.004776 
	C6.516176,94.013885 5.783189,94.026878 5.037831,93.688820 
	C4.950005,92.612091 4.874550,91.886414 4.799095,91.160736 
	C3.998436,95.855698 3.960101,100.511971 4.015452,105.167130 
	C4.041120,107.325867 3.903553,109.212074 1.000000,109.000000 
M129.601212,22.885481 
	C127.543633,21.235477 125.486053,19.585476 123.428482,17.935472 
	C123.257683,18.198225 123.086884,18.460978 122.916092,18.723730 
	C125.303604,22.032139 127.691116,25.340548 131.021210,29.955105 
	C130.480759,26.893362 130.188080,25.235407 129.601212,22.885481 
M11.048558,87.811714 
	C11.439673,87.718361 11.830790,87.625008 12.221905,87.531654 
	C12.137865,87.412704 12.038198,87.183525 11.972349,87.192871 
	C11.575963,87.249069 11.187332,87.359962 11.048558,87.811714 
M14.255106,86.166649 
	C14.412550,86.114960 14.569994,86.063271 14.727438,86.011574 
	C14.569457,85.961029 14.411475,85.910484 14.255106,86.166649 
z"/>
<path fill="#FEFBFA" opacity="1.000000" stroke="none" 
	d="
M83.916176,199.789948 
	C79.114151,202.226669 74.359718,203.253769 68.951538,201.190048 
	C42.570038,191.122940 23.702976,172.671951 10.842598,148.114838 
	C6.857340,140.504929 5.531429,131.505249 2.942399,123.155998 
	C2.720267,122.439644 2.153817,121.830063 1.373656,121.085449 
	C1.000000,117.307091 1.000000,113.614182 1.000000,109.460632 
	C3.903553,109.212074 4.041120,107.325867 4.015452,105.167130 
	C3.960101,100.511971 3.998436,95.855698 4.799095,91.160736 
	C4.874550,91.886414 4.950005,92.612091 5.030238,94.060234 
	C5.713454,95.850311 6.391892,96.917931 7.064648,98.449432 
	C7.054136,102.937126 7.049307,106.960930 6.751288,111.263962 
	C5.915922,124.783035 10.209809,136.802734 16.022713,148.364044 
	C17.109484,150.525543 19.301834,152.131149 20.997627,154.319763 
	C21.019890,155.081711 21.028500,155.517197 21.068733,156.276245 
	C21.735270,157.062943 22.370180,157.526047 23.021851,158.227051 
	C23.038614,158.464951 23.044901,158.941895 23.073511,159.266785 
	C23.736975,160.057220 24.371828,160.522751 25.245298,161.156784 
	C25.669352,161.866241 25.854786,162.407196 26.062391,163.297424 
	C27.724737,165.094330 29.364914,166.541931 31.301865,168.139267 
	C34.401684,171.191086 37.204731,174.093170 40.043968,177.345779 
	C42.045349,179.132767 44.010544,180.569229 46.196236,182.116150 
	C46.694149,182.423538 46.890881,182.681915 47.051559,183.321442 
	C47.744301,184.083328 48.392429,184.525482 49.281357,184.974731 
	C49.522160,184.981827 50.002674,185.017212 50.045555,185.368881 
	C52.056458,186.811859 54.024471,187.903183 56.175701,189.224823 
	C56.907333,189.641663 57.455746,189.828201 58.061119,190.356689 
	C64.773849,193.778915 71.429619,196.859177 78.504082,199.938614 
	C80.587234,199.888519 82.251709,199.839233 83.916176,199.789948 
z"/>
<path fill="#66C904" opacity="1.000000" stroke="none" 
	d="
M136.931870,58.971329 
	C137.025833,59.114094 137.119812,59.256863 136.948700,59.847187 
	C135.233521,63.817432 132.316040,67.194473 135.688065,71.171707 
	C141.009384,77.448097 141.283936,80.559731 137.526230,88.256363 
	C137.206375,88.911476 137.912262,90.067375 138.141632,90.990623 
	C132.338989,93.984612 126.541527,96.988731 120.731728,99.968781 
	C117.254158,101.752548 113.757271,103.498657 110.166580,105.849518 
	C110.030762,106.606651 109.997429,106.775963 109.977325,106.971481 
	C109.990570,106.997696 109.948677,106.955582 109.527939,106.940628 
	C107.155304,106.971230 105.203423,107.016785 102.795700,107.030930 
	C95.190956,108.618370 88.042046,110.237228 80.517494,111.906555 
	C73.746391,115.618759 67.350929,119.280502 60.550156,122.939873 
	C58.098686,122.600800 56.052528,122.264099 53.887054,121.569511 
	C51.395924,115.962364 49.184540,110.632111 46.590683,105.494972 
	C45.092106,102.527039 42.976540,99.870644 41.138664,97.074028 
	C41.419388,95.644409 41.700108,94.214798 41.993061,92.036057 
	C37.022118,84.849373 32.038940,78.411804 27.055767,71.974243 
	C26.870728,71.388412 26.685690,70.802582 26.182165,69.718964 
	C25.791021,68.475174 25.718365,67.729164 25.935364,66.774109 
	C30.720493,60.631260 35.215965,54.697456 39.858948,49.112747 
	C40.800293,50.903019 41.560249,52.364098 42.393509,53.782104 
	C47.415901,62.328999 57.646862,66.514610 67.338440,63.870399 
	C68.983719,63.294533 70.273262,62.709133 71.894592,62.110756 
	C73.960823,60.918781 75.642380,59.650440 77.443481,58.584007 
	C79.568115,57.326008 81.796188,56.242706 84.271675,55.274124 
	C85.350555,56.830574 86.065712,58.244213 86.938324,59.552860 
	C88.886436,62.474476 90.913101,65.343712 92.981415,68.433876 
	C93.385818,68.884247 93.716568,69.135025 94.254166,69.686501 
	C97.638512,71.952843 100.582771,74.862968 104.035141,75.715523 
	C116.849091,78.879883 127.260376,73.518837 133.207672,61.719154 
	C133.827286,60.489815 135.661301,59.872574 136.931870,58.971329 
M44.902466,67.432434 
	C44.703556,67.181908 44.461895,66.983429 44.195671,66.205292 
	C44.459324,65.159554 44.722977,64.113815 44.986629,63.068077 
	C43.951538,62.952625 42.916451,62.837173 41.881363,62.721722 
	C41.810204,63.601711 41.436901,64.614120 41.748962,65.326157 
	C42.092606,66.110237 43.066086,66.618286 44.025894,67.638870 
	C44.215599,67.896843 44.449146,68.105827 44.959816,68.691101 
	C45.179554,68.932625 45.434834,69.127602 45.960297,69.697311 
	C46.179337,69.936348 46.431995,70.131950 46.951042,70.706367 
	C47.168854,70.946266 47.419758,71.144211 47.902225,71.905312 
	C48.694580,72.534607 49.486931,73.163910 50.279285,73.793205 
	C50.535034,73.443993 50.790779,73.094788 51.046528,72.745575 
	C50.091278,72.098579 49.136032,71.451576 47.919067,70.402000 
	C47.718151,70.140305 47.464260,69.948845 46.904152,69.419846 
	C46.709030,69.153488 46.458687,68.957741 45.903965,68.421341 
	C45.709576,68.153557 45.459328,67.956825 44.902466,67.432434 
M91.660736,88.346336 
	C92.091225,88.258492 92.521713,88.170647 93.762344,87.950554 
	C98.352310,87.096046 102.942284,86.241547 107.532249,85.387039 
	C107.461411,85.020905 107.390579,84.654770 107.319740,84.288643 
	C102.477661,84.939674 97.635574,85.590714 92.263153,86.181259 
	C91.907562,86.215408 91.551964,86.249550 90.274437,86.081223 
	C86.842857,86.077599 83.411285,86.073975 79.215805,85.946236 
	C73.294243,84.300781 67.372673,82.655334 60.938030,80.867317 
	C66.641251,94.398888 80.695122,95.351364 91.121582,88.081963 
	C91.121582,88.081963 91.047325,88.089233 91.660736,88.346336 
M121.368774,78.972717 
	C119.799873,78.971794 117.837837,78.374542 116.744644,79.095215 
	C114.530243,80.555054 112.786568,82.728928 110.539955,84.907982 
	C115.437820,83.750389 120.223343,82.619347 125.141777,81.456886 
	C124.465210,80.949951 123.266190,80.051552 121.368774,78.972717 
M55.267918,76.667580 
	C56.167419,77.427017 57.066925,78.186462 57.966427,78.945900 
	C58.217670,78.558151 58.468918,78.170395 58.720161,77.782646 
	C57.728493,77.272812 56.736820,76.762978 55.267918,76.667580 
M52.259724,74.611122 
	C52.537544,74.946198 52.815361,75.281265 53.093178,75.616341 
	C53.296146,75.431496 53.499119,75.246651 53.702091,75.061806 
	C53.365273,74.790176 53.028450,74.518547 52.259724,74.611122 
z"/>
<path fill="#66CA03" opacity="1.000000" stroke="none" 
	d="
M153.012482,150.801376 
	C162.026871,151.544968 171.041275,152.288544 180.522537,153.468781 
	C180.822006,154.871384 181.003403,156.201431 180.433563,156.747284 
	C174.358612,162.566605 168.164597,168.261612 161.534485,173.994873 
	C155.305527,173.999390 149.513718,174.379837 143.793289,173.903244 
	C136.764160,173.317642 129.774704,172.055588 126.144821,164.648682 
	C135.026031,157.892914 136.171951,153.422470 132.698898,140.975891 
	C139.701218,144.202820 146.356857,147.502090 153.012482,150.801376 
z"/>
<path fill="#ECEADB" opacity="1.000000" stroke="none" 
	d="
M60.955460,122.942238 
	C67.350929,119.280502 73.746391,115.618759 80.924591,112.023438 
	C88.606895,110.975578 95.506470,109.861298 102.873383,108.825256 
	C105.543373,108.254189 107.746025,107.604881 109.948677,106.955582 
	C109.948677,106.955582 109.990570,106.997696 110.429535,107.003128 
	C113.603958,107.002609 116.339417,106.996666 119.074875,106.990723 
	C119.509933,107.003868 119.945000,107.017021 120.598877,107.412811 
	C116.934387,108.972321 113.051071,110.149193 109.167755,111.326057 
	C114.152115,111.988022 119.003357,112.028755 123.852409,111.943901 
	C124.575455,111.931252 125.288177,111.328217 126.005676,110.998306 
	C130.504822,110.085396 130.477386,113.626106 131.602020,117.087090 
	C130.641022,118.287605 129.377625,119.074615 128.062332,119.173859 
	C115.651352,120.110435 103.231529,120.929764 90.429871,121.756599 
	C88.575409,122.100578 87.105324,122.470856 85.263535,122.845184 
	C82.236366,123.872681 79.580902,124.896118 76.572830,125.948593 
	C74.482025,127.029381 72.743835,128.081131 70.752708,129.068146 
	C70.333130,128.953156 70.166489,128.902893 69.936813,128.546844 
	C69.230080,127.820763 68.586372,127.400467 67.958084,126.647690 
	C68.079346,125.660126 68.185188,125.005043 68.557610,124.251900 
	C69.288300,123.835625 69.752403,123.517403 70.397766,123.064117 
	C70.535118,122.694664 70.491196,122.460266 70.447281,122.225876 
	C70.197632,122.378799 69.947975,122.531723 69.421371,122.739914 
	C68.692200,123.116455 68.239998,123.437729 67.502716,123.817413 
	C66.846558,123.988182 66.475479,124.100533 65.806503,124.256546 
	C63.990891,123.847557 62.473175,123.394897 60.955460,122.942238 
M77.323181,118.789291 
	C76.392296,119.238968 75.461418,119.688652 74.530533,120.138329 
	C74.675499,120.454063 74.820465,120.769798 74.965431,121.085533 
	C76.875862,120.503143 78.786285,119.920761 80.696709,119.338371 
	C80.645035,119.075500 80.593361,118.812630 80.541687,118.549759 
	C79.693390,118.549759 78.845093,118.549759 77.323181,118.789291 
M72.226234,121.462746 
	C72.399010,121.479263 72.571777,121.495781 72.744553,121.512306 
	C72.665230,121.430977 72.585907,121.349648 72.226234,121.462746 
z"/>
<path fill="#EEEBDD" opacity="1.000000" stroke="none" 
	d="
M40.846512,96.872025 
	C42.976540,99.870644 45.092106,102.527039 46.590683,105.494972 
	C49.184540,110.632111 51.395924,115.962364 53.542763,121.724152 
	C50.181496,123.176086 47.045208,124.115471 43.659054,124.925735 
	C42.970402,124.479469 42.531620,124.162346 42.064503,123.895500 
	C42.036171,123.945786 42.142406,123.990952 42.151245,123.623398 
	C41.782970,122.684189 41.405861,122.112534 41.122490,121.280037 
	C40.892624,120.643677 40.569023,120.268166 40.210098,119.548843 
	C39.473438,118.105850 38.772106,117.006683 38.059444,115.951660 
	C38.048119,115.995811 38.118031,115.937302 38.086765,115.608856 
	C37.052639,114.165192 36.049774,113.049973 35.026176,111.963295 
	C35.005444,111.991844 35.074036,111.975258 35.035126,111.693512 
	C34.675480,111.247490 34.354740,111.083221 34.023422,110.953094 
	C34.012836,110.987228 34.081768,110.968300 34.043816,110.683197 
	C33.692661,110.223824 33.379459,110.049553 33.060135,109.915771 
	C33.054016,109.956261 33.133492,109.936462 33.107456,109.640198 
	C32.743443,109.178185 32.405468,109.012436 32.059761,108.892593 
	C32.052029,108.938507 32.145050,108.934235 32.097542,108.645126 
	C31.718666,108.196167 31.387295,108.036324 31.057022,107.916527 
	C31.058119,107.956573 31.134937,107.933792 31.100773,107.640686 
	C30.725830,107.195610 30.385050,107.043640 30.032589,106.927994 
	C30.020910,106.964325 30.096928,106.957657 30.056343,106.674500 
	C29.686752,106.231682 29.357746,106.072014 29.022942,105.947937 
	C29.017141,105.983521 29.087696,105.968636 29.037403,105.690186 
	C28.662601,105.251419 28.338089,105.091095 28.009363,104.962845 
	C28.005150,104.994926 28.063093,104.966110 27.943094,104.675850 
	C27.232750,104.201584 26.642405,104.017578 26.046402,103.885384 
	C26.040745,103.937195 26.144773,103.930450 26.039040,103.657974 
	C25.342239,102.918900 24.751173,102.452309 24.006580,101.685280 
	C22.254326,100.197304 20.655596,99.009766 18.973927,97.554024 
	C18.314322,96.817612 17.737656,96.349403 17.088520,95.556793 
	C15.595175,93.871689 14.174298,92.511002 12.753423,91.150314 
	C14.343914,90.227623 15.934406,89.304939 18.143047,88.219963 
	C21.277431,89.306190 21.269157,87.853310 20.922289,86.038101 
	C28.404871,83.401382 31.716167,90.270332 36.778946,93.090942 
	C38.246548,93.908592 39.307167,95.456749 40.846512,96.872025 
M29.937386,95.404427 
	C29.742130,95.142433 29.494621,94.946411 28.951641,94.392731 
	C28.730303,94.141693 28.459536,93.967491 27.916254,93.438156 
	C27.709990,93.176430 27.450405,92.988274 26.829536,92.397133 
	C26.323734,92.162712 25.817932,91.928284 25.050316,91.294586 
	C24.841413,91.048058 24.596643,90.844688 24.044737,90.271881 
	C23.804285,90.035004 23.520985,89.873100 22.912367,89.438164 
	C22.664839,89.488129 22.417311,89.538094 22.169783,89.588058 
	C22.359051,89.809059 22.548319,90.030067 22.968407,90.686066 
	C23.185308,90.944061 23.452532,91.129555 24.044270,91.634003 
	C24.266565,91.873360 24.532833,92.044167 25.164064,92.608856 
	C25.665834,92.844246 26.167604,93.079636 26.937584,93.718071 
	C27.143663,93.984573 27.408302,94.165405 27.960197,94.687920 
	C28.140301,94.974808 28.388756,95.178268 28.984995,95.684830 
	C29.201668,95.925751 29.458702,96.110527 29.962309,96.679512 
	C30.159081,96.943146 30.400738,97.155746 30.949711,97.724358 
	C31.184357,97.951706 31.453894,98.124664 31.968456,98.679955 
	C32.166027,98.942192 32.409592,99.150688 32.949833,99.719574 
	C33.176632,99.954849 33.440727,100.135628 33.848591,100.764931 
	C34.156170,100.910881 34.463749,101.056831 34.771324,101.202782 
	C34.563351,100.749084 34.355377,100.295380 33.933086,99.407356 
	C33.757072,99.120155 33.512520,98.914398 32.952599,98.374344 
	C32.754364,98.103409 32.495308,97.916954 31.954685,97.384865 
	C31.771055,97.104500 31.523779,96.901718 30.954172,96.367378 
	C30.747801,96.103233 30.484375,95.922012 29.937386,95.404427 
z"/>
<path fill="#5BB006" opacity="1.000000" stroke="none" 
	d="
M125.923798,164.895294 
	C129.774704,172.055588 136.764160,173.317642 143.793289,173.903244 
	C149.513718,174.379837 155.305527,173.999390 161.536530,174.368973 
	C162.005219,175.485870 162.003052,176.232788 161.759552,177.000763 
	C161.518250,177.021851 161.035324,177.060303 160.678543,177.077728 
	C153.662231,180.347778 146.967560,183.531281 140.362839,186.891617 
	C138.144150,188.020447 136.154419,189.599274 134.060028,190.972412 
	C129.561523,189.438629 125.063011,187.904861 120.183228,185.814957 
	C119.711418,185.058548 119.620888,184.858261 119.641533,184.273651 
	C120.579376,179.301178 121.406036,174.713043 122.402649,169.950317 
	C122.779091,169.499893 122.858940,169.191269 122.829575,168.546417 
	C122.903748,167.842178 122.960472,167.441391 123.269478,166.874146 
	C124.322441,166.103561 125.123116,165.499420 125.923798,164.895294 
z"/>
<path fill="#11170E" opacity="1.000000" stroke="none" 
	d="
M136.850632,58.646019 
	C135.661301,59.872574 133.827286,60.489815 133.207672,61.719154 
	C127.260376,73.518837 116.849091,78.879883 104.035141,75.715523 
	C100.582771,74.862968 97.638512,71.952843 94.769073,69.588455 
	C95.767097,69.115273 96.457062,69.040848 97.373398,69.137970 
	C98.114792,69.831596 98.629822,70.353668 99.478333,71.061737 
	C101.506973,71.823013 103.175888,72.496582 104.901611,72.957367 
	C114.922691,75.633171 125.512932,70.751442 129.942429,61.463734 
	C134.468201,51.974148 131.308731,40.622150 122.696999,34.457031 
	C114.546227,28.621899 100.381180,30.416082 94.417961,36.994926 
	C93.196243,36.956333 92.380760,36.918251 91.702667,36.588661 
	C92.312035,35.583744 92.784019,34.870331 93.541916,34.084206 
	C94.187805,33.405064 94.547798,32.798630 94.907784,32.192196 
	C100.090973,30.736141 105.205948,28.433775 110.472282,28.009306 
	C119.931564,27.246889 126.854744,32.206474 131.803772,40.055248 
	C133.003769,41.958355 134.143692,43.899342 135.402023,46.325783 
	C135.392761,48.132534 135.292725,49.436413 135.124207,51.632717 
	C144.471634,47.421734 152.826935,43.657696 161.182251,39.893658 
	C161.080383,39.622150 160.978500,39.350639 160.876633,39.079128 
	C160.062500,39.032612 159.248352,38.986095 158.434219,38.939583 
	C158.959717,38.581757 159.438324,38.063839 160.018829,37.893814 
	C162.529877,37.158337 165.527725,34.789742 167.135971,38.850319 
	C168.614685,42.583817 166.907578,45.308895 163.073929,47.653069 
	C162.454361,45.637383 162.019989,44.224228 161.472168,42.442005 
	C152.621872,47.104786 143.890549,51.704884 134.761993,56.514263 
	C135.612030,57.279202 136.190720,57.799953 136.850632,58.646019 
z"/>
<path fill="#D85755" opacity="1.000000" stroke="none" 
	d="
M94.990952,195.484131 
	C92.907738,195.986221 90.824524,196.488327 88.183990,196.700867 
	C86.237854,195.909393 84.875748,195.310272 83.456200,194.920212 
	C62.223305,189.085770 44.776543,177.410217 31.546238,159.943298 
	C25.894459,152.481705 21.680779,143.930832 16.870945,135.535431 
	C17.264540,133.867599 17.600807,132.539230 18.296474,131.211685 
	C21.182425,136.670837 23.221375,142.430130 26.357929,147.511978 
	C30.353765,153.986038 33.539749,161.341171 41.006924,165.372345 
	C41.720436,166.100403 42.370296,166.516357 43.291706,167.125366 
	C45.095051,168.804214 46.460991,170.528397 48.189762,171.731049 
	C53.361763,175.329041 58.675755,178.722931 64.096695,182.487518 
	C65.882561,183.890747 67.359154,185.455429 69.154503,186.038330 
	C77.763382,188.833405 86.458504,191.362869 95.102737,194.362167 
	C95.051979,194.986465 95.021461,195.235291 94.990952,195.484131 
z"/>
<path fill="#EA9F9E" opacity="1.000000" stroke="none" 
	d="
M16.813622,135.874924 
	C21.680779,143.930832 25.894459,152.481705 31.546238,159.943298 
	C44.776543,177.410217 62.223305,189.085770 83.456200,194.920212 
	C84.875748,195.310272 86.237854,195.909393 87.807846,196.728760 
	C86.809784,197.546021 85.630539,198.045792 83.881271,198.421204 
	C81.697357,197.523590 80.099739,196.713974 78.466789,195.983292 
	C71.067284,192.672348 63.564468,189.574280 56.289154,186.011002 
	C52.330338,184.072052 48.751820,181.356659 44.865120,178.736908 
	C44.144684,177.994507 43.560902,177.506653 42.852249,176.709625 
	C38.812523,172.605637 34.897667,168.810822 30.869419,164.803345 
	C30.561295,164.323944 30.311497,164.127090 29.982162,163.649109 
	C26.973436,159.196884 23.989180,155.095642 21.002460,150.997192 
	C21.000000,151.000000 21.006899,150.995468 20.988770,150.672485 
	C20.320837,149.552826 19.671036,148.756134 18.973228,147.625259 
	C18.249386,145.877502 17.573551,144.463928 16.905092,142.679459 
	C16.274076,140.191208 15.635683,138.073868 15.300581,135.938324 
	C16.007120,135.905060 16.410372,135.889984 16.813622,135.874924 
z"/>
<path fill="#FBFDF9" opacity="1.000000" stroke="none" 
	d="
M192.893036,154.043488 
	C199.893661,155.809814 201.183228,158.634705 196.572266,163.891052 
	C190.249786,171.098480 183.614639,178.080521 176.594849,184.600784 
	C174.139694,186.881241 170.148544,187.507996 166.858841,188.889938 
	C166.579971,188.556885 166.301102,188.223846 166.022247,187.890793 
	C168.987122,184.815262 171.951996,181.739716 174.951050,178.326721 
	C174.985245,177.989258 174.975418,177.974060 175.343079,177.980057 
	C180.032333,176.414047 183.219650,173.804367 184.085632,168.697784 
	C184.783661,167.942245 185.362488,167.450882 186.292526,166.938751 
	C188.066116,165.231201 189.488525,163.544403 190.909592,161.637146 
	C190.908264,161.416702 190.966080,160.979614 191.324783,160.946838 
	C194.254150,159.635483 196.384094,158.193558 193.654510,154.917816 
	C193.194366,154.600449 193.010498,154.345963 192.893036,154.043488 
z"/>
<path fill="#79E709" opacity="1.000000" stroke="none" 
	d="
M138.454102,90.872681 
	C137.912262,90.067375 137.206375,88.911476 137.526230,88.256363 
	C141.283936,80.559731 141.009384,77.448097 135.688065,71.171707 
	C132.316040,67.194473 135.233521,63.817432 137.012207,60.095573 
	C148.552780,68.006714 148.844635,77.859886 140.529007,89.027222 
	C140.043610,89.679077 139.358658,90.182327 138.454102,90.872681 
z"/>
<path fill="#CEE8B4" opacity="1.000000" stroke="none" 
	d="
M185.941315,166.959503 
	C185.362488,167.450882 184.783661,167.942245 183.786499,168.842590 
	C180.570602,172.159042 177.773010,175.066544 174.975418,177.974060 
	C174.975418,177.974060 174.985245,177.989258 174.978149,177.978500 
	C169.045883,181.799362 163.267303,185.891617 157.128708,189.343689 
	C154.394821,190.881119 150.935883,191.129242 147.618408,191.663757 
	C161.341599,184.895233 173.179077,175.648636 183.221588,164.142548 
	C185.849930,161.131180 187.718826,157.456970 189.936493,154.087158 
	C190.676147,154.061935 191.415817,154.036697 192.524261,154.027466 
	C193.010498,154.345963 193.194366,154.600449 193.551743,155.231232 
	C192.761246,157.430222 191.863663,159.204910 190.966064,160.979614 
	C190.966080,160.979614 190.908264,161.416702 190.574677,161.703400 
	C188.807831,163.646561 187.374573,165.303024 185.941315,166.959503 
z"/>
<path fill="#0F1F0B" opacity="1.000000" stroke="none" 
	d="
M83.979408,55.083664 
	C81.796188,56.242706 79.568115,57.326008 77.443481,58.584007 
	C75.642380,59.650440 73.960823,60.918781 71.558746,62.005871 
	C70.613144,60.929722 70.335167,59.945480 70.301071,58.987846 
	C70.544960,59.014454 71.015488,59.153580 71.113525,59.290001 
	C71.469353,59.326714 71.727158,59.227005 72.280098,58.956123 
	C87.173164,48.770416 82.555984,30.009127 70.925507,24.678883 
	C70.060349,23.612030 69.384201,22.786407 68.708061,21.960785 
	C72.035645,23.686977 75.411835,25.327595 78.669037,27.177696 
	C80.159729,28.024406 81.416222,29.283424 82.871056,30.997139 
	C83.017311,32.082638 83.071442,32.526451 83.106186,33.389282 
	C83.185768,38.847916 83.182411,43.893009 83.451485,48.923531 
	C83.524017,50.279682 84.423546,51.591599 84.848457,53.204285 
	C84.495438,54.017719 84.237419,54.550690 83.979408,55.083664 
z"/>
<path fill="#9BD365" opacity="1.000000" stroke="none" 
	d="
M39.711437,48.763653 
	C35.215965,54.697456 30.720493,60.631260 25.630314,66.548523 
	C24.891016,62.724876 24.746428,58.917774 24.601841,55.110668 
	C28.658854,49.840153 32.778782,44.656040 40.511436,44.116478 
	C40.973721,44.806267 41.004192,45.219929 40.726662,45.835606 
	C40.182919,46.946297 39.947178,47.854977 39.711437,48.763653 
z"/>
<path fill="#A7DA75" opacity="1.000000" stroke="none" 
	d="
M189.619568,154.074219 
	C187.718826,157.456970 185.849930,161.131180 183.221588,164.142548 
	C173.179077,175.648636 161.341599,184.895233 147.198425,191.604874 
	C145.890640,191.866745 144.815216,191.888733 143.423904,191.508896 
	C149.945602,187.146072 157.246109,183.794220 163.488586,179.050171 
	C169.547379,174.445679 174.520126,168.412079 180.234253,162.871750 
	C180.995026,162.141083 181.491333,161.544739 182.296509,160.826813 
	C184.416092,158.455399 186.226791,156.205551 188.037476,153.955688 
	C188.459198,153.990875 188.880905,154.026062 189.619568,154.074219 
z"/>
<path fill="#862925" opacity="1.000000" stroke="none" 
	d="
M90.814262,121.782898 
	C103.231529,120.929764 115.651352,120.110435 128.062332,119.173859 
	C129.377625,119.074615 130.641022,118.287605 131.719849,117.398300 
	C133.984467,118.240700 136.457733,119.504456 139.516281,121.067268 
	C138.158081,124.268295 136.535553,128.092285 134.647278,132.478943 
	C133.956772,133.742844 133.532013,134.444046 133.033813,134.742325 
	C134.264526,130.175842 135.568695,126.012299 136.796478,122.092583 
	C122.403564,122.092583 108.275627,122.092583 93.767220,122.068329 
	C92.633911,122.077202 91.881073,122.110336 91.049484,122.053558 
	C90.970726,121.963638 90.814262,121.782890 90.814262,121.782898 
z"/>
<path fill="#86C944" opacity="1.000000" stroke="none" 
	d="
M179.969803,163.006088 
	C174.520126,168.412079 169.547379,174.445679 163.488586,179.050171 
	C157.246109,183.794220 149.945602,187.146072 143.027588,191.435669 
	C141.191711,191.581406 139.436279,191.398560 137.576233,190.780548 
	C140.370361,189.172791 143.463943,188.330002 146.126099,186.757019 
	C151.225388,183.744019 156.079483,180.316071 161.035324,177.060303 
	C161.035324,177.060303 161.518250,177.021851 162.111740,176.971985 
	C164.514450,175.589951 166.384048,174.331573 168.120728,172.910751 
	C172.104858,169.651291 176.024170,166.312607 179.969803,163.006088 
z"/>
<path fill="#D85755" opacity="1.000000" stroke="none" 
	d="
M12.573244,91.162971 
	C14.174298,92.511002 15.595175,93.871689 16.670593,95.633232 
	C15.858757,97.665016 14.954547,99.308487 15.000842,100.924728 
	C15.215628,108.423203 15.693995,115.914131 15.833778,123.236763 
	C14.070169,120.092491 12.550776,117.119209 11.060673,113.669495 
	C11.405677,105.833397 11.721391,98.473724 12.037106,91.114059 
	C12.037106,91.114059 12.393066,91.175629 12.573244,91.162971 
z"/>
<path fill="#A9DB72" opacity="1.000000" stroke="none" 
	d="
M68.713898,21.689642 
	C69.384201,22.786407 70.060349,23.612030 70.893341,25.012451 
	C71.046982,26.034725 71.043762,26.482201 70.685898,26.847942 
	C68.781013,26.863014 67.230797,26.959816 65.324951,27.055386 
	C60.679493,29.502626 56.250134,31.740231 52.139839,34.460026 
	C48.183582,37.077904 44.557255,40.194389 40.785961,43.091797 
	C40.841736,40.928371 40.897507,38.764942 41.386009,36.387276 
	C42.509228,36.912205 43.199715,37.651375 43.139904,37.587349 
	C50.395226,32.908138 57.268444,28.536573 64.050896,24.028442 
	C64.962151,23.422749 65.415642,22.128344 66.081108,21.152859 
	C66.960648,21.241405 67.840187,21.329952 68.713898,21.689642 
z"/>
<path fill="#F5CFCF" opacity="1.000000" stroke="none" 
	d="
M45.001770,178.991470 
	C48.751820,181.356659 52.330338,184.072052 56.289154,186.011002 
	C63.564468,189.574280 71.067284,192.672348 78.466789,195.983292 
	C80.099739,196.713974 81.697357,197.523590 83.554993,198.493103 
	C83.825333,198.872925 83.851913,199.056488 83.897339,199.514984 
	C82.251709,199.839233 80.587234,199.888519 78.418449,199.594299 
	C71.277473,196.172104 64.640823,193.093414 58.004166,190.014725 
	C57.455746,189.828201 56.907333,189.641663 56.025898,188.926285 
	C53.796143,187.270691 51.899406,186.143951 50.002670,185.017212 
	C50.002674,185.017212 49.522160,184.981827 49.226456,184.660583 
	C48.289482,183.893463 47.648212,183.447601 47.006943,183.001740 
	C46.890881,182.681915 46.694149,182.423538 46.078102,181.817993 
	C45.493565,180.603439 45.247669,179.797455 45.001770,178.991470 
z"/>
<path fill="#73C81E" opacity="1.000000" stroke="none" 
	d="
M180.234253,162.871750 
	C176.024170,166.312607 172.104858,169.651291 168.120728,172.910751 
	C166.384048,174.331573 164.514450,175.589951 162.353058,176.950897 
	C162.003052,176.232788 162.005219,175.485870 162.005341,174.364868 
	C168.164597,168.261612 174.358612,162.566605 180.433563,156.747284 
	C181.003403,156.201431 180.822006,154.871384 180.985901,153.534698 
	C182.214935,153.142502 183.447449,153.121017 184.845367,153.762024 
	C184.003036,156.599152 182.995331,158.773773 181.987640,160.948395 
	C181.491333,161.544739 180.995026,162.141083 180.234253,162.871750 
z"/>
<path fill="#EDB5B5" opacity="1.000000" stroke="none" 
	d="
M11.914931,90.807274 
	C11.721391,98.473724 11.405677,105.833397 10.735628,113.632050 
	C9.948554,114.043068 9.515813,114.015099 9.020217,113.673782 
	C8.319733,112.568535 7.682105,111.776634 7.044477,110.984734 
	C7.049307,106.960930 7.054136,102.937126 7.324453,98.212524 
	C7.721082,96.344048 7.852223,95.176353 7.983365,94.008667 
	C8.016072,93.261017 8.048779,92.513367 8.313666,91.211563 
	C8.699607,90.107681 8.853368,89.557961 9.007128,89.008232 
	C9.935672,89.505653 10.864215,90.003067 11.914931,90.807274 
z"/>
<path fill="#C6E7A1" opacity="1.000000" stroke="none" 
	d="
M65.704956,21.083332 
	C65.415642,22.128344 64.962151,23.422749 64.050896,24.028442 
	C57.268444,28.536573 50.395226,32.908138 43.139904,37.587349 
	C43.199715,37.651375 42.509228,36.912205 41.529430,36.129463 
	C41.208290,35.911640 41.176460,35.737385 41.437271,35.128952 
	C47.038673,31.227457 52.420837,27.864351 57.601681,24.215397 
	C58.811378,23.363388 59.337841,21.541311 60.178658,20.165558 
	C61.895374,20.448307 63.612087,20.731056 65.704956,21.083332 
z"/>
<path fill="#414141" opacity="1.000000" stroke="none" 
	d="
M158.172943,39.179844 
	C159.248352,38.986095 160.062500,39.032612 160.876633,39.079128 
	C160.978500,39.350639 161.080383,39.622150 161.182251,39.893658 
	C152.826935,43.657696 144.471634,47.421734 135.124207,51.632717 
	C135.292725,49.436413 135.392761,48.132534 135.694641,46.531246 
	C139.472961,45.342056 143.099075,44.609642 146.612534,43.515480 
	C150.433472,42.325565 154.149750,40.799568 158.172943,39.179844 
z"/>
<path fill="#DEE7D4" opacity="1.000000" stroke="none" 
	d="
M59.797546,20.148378 
	C59.337841,21.541311 58.811378,23.363388 57.601681,24.215397 
	C52.420837,27.864351 47.038673,31.227457 41.439217,34.863243 
	C41.191479,34.102577 40.868065,32.648136 41.332912,32.323933 
	C47.295166,28.165646 53.370087,24.168901 59.797546,20.148378 
z"/>
<path fill="#96D74E" opacity="1.000000" stroke="none" 
	d="
M40.824631,43.260540 
	C44.557255,40.194389 48.183582,37.077904 52.139839,34.460026 
	C56.250134,31.740231 60.679493,29.502626 65.441498,27.359205 
	C66.312126,28.427761 66.710579,29.191269 66.698318,29.969036 
	C55.738647,32.419880 48.090374,38.604095 42.657307,47.895065 
	C41.915382,47.044666 41.475021,46.339130 41.034660,45.633591 
	C41.004192,45.219929 40.973721,44.806267 40.902336,44.084053 
	C40.861427,43.775505 40.863304,43.429279 40.824631,43.260540 
z"/>
<path fill="#E9EFE2" opacity="1.000000" stroke="none" 
	d="
M26.792253,72.208611 
	C32.038940,78.411804 37.022118,84.849373 41.936028,91.648361 
	C36.716335,86.426910 31.528236,80.877548 26.480244,75.203537 
	C26.030416,74.697929 26.490988,73.382370 26.792253,72.208611 
z"/>
<path fill="#EBF1E4" opacity="1.000000" stroke="none" 
	d="
M133.107269,135.145248 
	C133.532013,134.444046 133.956772,133.742844 134.617859,132.828400 
	C133.860977,138.985092 137.581406,141.962296 142.882843,143.864243 
	C145.663712,144.861923 148.476028,145.832809 151.109970,147.145294 
	C152.001297,147.589417 152.388184,149.045868 153.009033,150.420532 
	C146.356857,147.502090 139.701218,144.202820 132.681824,140.881226 
	C132.318039,140.858917 132.142639,140.786102 132.183258,140.426300 
	C132.525787,138.396194 132.827728,136.725876 133.099197,135.071747 
	C133.068741,135.087921 133.107254,135.145248 133.107269,135.145248 
z"/>
<path fill="#73C81E" opacity="1.000000" stroke="none" 
	d="
M160.678543,177.077728 
	C156.079483,180.316071 151.225388,183.744019 146.126099,186.757019 
	C143.463943,188.330002 140.370361,189.172791 137.233017,190.594696 
	C136.257202,190.940857 135.520004,191.037704 134.421417,191.053482 
	C136.154419,189.599274 138.144150,188.020447 140.362839,186.891617 
	C146.967560,183.531281 153.662231,180.347778 160.678543,177.077728 
z"/>
<path fill="#8D2729" opacity="1.000000" stroke="none" 
	d="
M119.530350,184.657990 
	C119.620888,184.858261 119.711418,185.058548 119.907898,185.571411 
	C118.668953,190.956070 115.215492,192.257385 110.255318,192.211517 
	C106.883644,192.180313 103.498764,193.575668 99.607529,194.219101 
	C99.095253,194.105087 98.896225,193.853485 99.041824,193.625458 
	C99.522415,192.968216 99.857399,192.539001 100.397324,192.114380 
	C100.602257,192.118958 101.008980,192.067398 101.388512,192.063797 
	C102.524025,191.995285 103.280014,191.930374 104.264992,191.801376 
	C104.787163,191.586288 105.012177,191.365707 105.586418,191.088440 
	C109.628899,190.391907 113.253998,189.682495 117.144051,188.820557 
	C117.535515,188.090668 117.662025,187.513275 117.816498,186.554428 
	C117.915543,185.155457 117.986610,184.137955 118.251511,183.226257 
	C118.807014,183.774048 119.168686,184.216019 119.530350,184.657990 
z"/>
<path fill="#31362E" opacity="1.000000" stroke="none" 
	d="
M129.748322,23.231466 
	C130.188080,25.235407 130.480759,26.893362 131.021210,29.955105 
	C127.691116,25.340548 125.303604,22.032139 122.916092,18.723730 
	C123.086884,18.460978 123.257683,18.198225 123.428482,17.935472 
	C125.486053,19.585476 127.543633,21.235477 129.748322,23.231466 
z"/>
<path fill="#DFE1CF" opacity="1.000000" stroke="none" 
	d="
M125.710266,110.858612 
	C125.288177,111.328217 124.575455,111.931252 123.852409,111.943901 
	C119.003357,112.028755 114.152115,111.988022 109.167755,111.326057 
	C113.051071,110.149193 116.934387,108.972321 120.925079,107.425293 
	C122.493256,108.276390 123.954056,109.497643 125.710266,110.858612 
z"/>
<path fill="#77E30B" opacity="1.000000" stroke="none" 
	d="
M83.125572,32.970261 
	C83.071442,32.526451 83.017311,32.082638 83.027542,31.308586 
	C86.960579,29.222641 90.720482,28.998276 94.587616,31.982140 
	C94.547798,32.798630 94.187805,33.405064 93.107758,34.039398 
	C89.300323,33.701622 86.212944,33.335941 83.125572,32.970261 
z"/>
<path fill="#F3F5EF" opacity="1.000000" stroke="none" 
	d="
M24.245277,55.209961 
	C24.746428,58.917774 24.891016,62.724876 25.340656,66.757568 
	C25.718365,67.729164 25.791021,68.475174 25.893593,69.601059 
	C20.651962,66.677147 19.855722,60.935940 24.245277,55.209961 
z"/>
<path fill="#86C944" opacity="1.000000" stroke="none" 
	d="
M182.296509,160.826813 
	C182.995331,158.773773 184.003036,156.599152 185.079025,154.051773 
	C186.021057,153.603271 186.894791,153.527527 187.903015,153.703735 
	C186.226791,156.205551 184.416092,158.455399 182.296509,160.826813 
z"/>
<path fill="#EEEBDD" opacity="1.000000" stroke="none" 
	d="
M7.616263,94.004776 
	C7.852223,95.176353 7.721082,96.344048 7.330135,97.748642 
	C6.391892,96.917931 5.713454,95.850311 5.042609,94.411285 
	C5.783189,94.026878 6.516176,94.013885 7.616263,94.004776 
z"/>
<path fill="#DFE1CF" opacity="1.000000" stroke="none" 
	d="
M118.801750,106.686493 
	C116.339417,106.996666 113.603958,107.002609 110.416290,106.976913 
	C109.997429,106.775963 110.030762,106.606651 110.134789,106.188110 
	C112.979866,106.086670 115.754250,106.234467 118.801750,106.686493 
z"/>
<path fill="#A9A998" opacity="1.000000" stroke="none" 
	d="
M20.588947,86.007736 
	C21.269157,87.853310 21.277431,89.306190 18.435751,88.013672 
	C16.520170,84.823296 19.297531,86.379845 20.588947,86.007736 
z"/>
<path fill="#8D2729" opacity="1.000000" stroke="none" 
	d="
M95.362717,195.423798 
	C95.021461,195.235291 95.051979,194.986465 95.477829,194.365051 
	C96.880852,193.946136 97.888535,193.899811 98.896225,193.853485 
	C98.896225,193.853485 99.095253,194.105087 99.195976,194.230499 
	C98.109299,194.691772 96.921890,195.027603 95.362717,195.423798 
z"/>
<path fill="#EEEBDD" opacity="1.000000" stroke="none" 
	d="
M8.715219,89.037254 
	C8.853368,89.557961 8.699607,90.107681 8.318304,90.837379 
	C8.201612,90.366989 8.312462,89.716637 8.715219,89.037254 
z"/>
<path fill="#EEEBDD" opacity="1.000000" stroke="none" 
	d="
M10.922332,87.632126 
	C11.187332,87.359962 11.575963,87.249069 11.972349,87.192871 
	C12.038198,87.183525 12.137865,87.412704 12.221905,87.531662 
	C11.830790,87.625008 11.439673,87.718361 10.922332,87.632126 
z"/>
<path fill="#EEEBDD" opacity="1.000000" stroke="none" 
	d="
M14.254299,86.013290 
	C14.411475,85.910484 14.569457,85.961029 14.727438,86.011581 
	C14.569994,86.063271 14.412550,86.114960 14.254299,86.013290 
z"/>
<path fill="#EEEBDD" opacity="1.000000" stroke="none" 
	d="
M6.751287,111.263962 
	C7.682105,111.776634 8.319733,112.568535 9.058973,114.077560 
	C10.776661,121.842064 12.392737,128.889450 13.774048,136.165955 
	C14.658759,138.613525 15.778236,140.831940 16.897717,143.050369 
	C17.573551,144.463928 18.249386,145.877502 18.967358,147.981812 
	C19.675297,149.446869 20.341099,150.221176 21.006901,150.995468 
	C21.006899,150.995468 21.000000,151.000000 20.993534,151.372162 
	C20.986038,152.493988 20.985008,153.243652 20.983978,153.993301 
	C19.301834,152.131149 17.109484,150.525543 16.022713,148.364044 
	C10.209809,136.802734 5.915922,124.783035 6.751287,111.263962 
z"/>
<path fill="#F2F2F1" opacity="1.000000" stroke="none" 
	d="
M58.061123,190.356689 
	C64.640823,193.093414 71.277473,196.172104 77.999763,199.595123 
	C71.429619,196.859177 64.773849,193.778915 58.061123,190.356689 
z"/>
<path fill="#F5CFCF" opacity="1.000000" stroke="none" 
	d="
M20.997629,154.319763 
	C20.985008,153.243652 20.986038,152.493988 20.995995,151.369370 
	C23.989180,155.095642 26.973436,159.196884 29.637245,163.624222 
	C28.224606,163.616257 27.132414,163.282196 26.040222,162.948135 
	C25.854786,162.407196 25.669352,161.866241 25.202000,160.840790 
	C24.295021,159.884827 23.669960,159.413361 23.044899,158.941895 
	C23.044901,158.941895 23.038614,158.464951 22.978729,157.910919 
	C22.291597,156.888824 21.664352,156.420746 21.037109,155.952667 
	C21.028500,155.517197 21.019890,155.081711 20.997629,154.319763 
z"/>
<path fill="#F5CFCF" opacity="1.000000" stroke="none" 
	d="
M30.982811,165.016022 
	C34.897667,168.810822 38.812523,172.605637 42.481342,176.714462 
	C41.492802,177.017410 40.750294,177.006332 40.007782,176.995255 
	C37.204731,174.093170 34.401684,171.191086 31.301205,167.767609 
	C30.996784,166.502823 30.989798,165.759415 30.982811,165.016022 
z"/>
<path fill="#F2F2F1" opacity="1.000000" stroke="none" 
	d="
M40.043968,177.345779 
	C40.750294,177.006332 41.492802,177.017410 42.606216,177.023651 
	C43.560902,177.506653 44.144684,177.994507 44.865120,178.736908 
	C45.247669,179.797455 45.493565,180.603439 45.857597,181.707565 
	C44.010544,180.569229 42.045349,179.132767 40.043968,177.345779 
z"/>
<path fill="#F2F2F1" opacity="1.000000" stroke="none" 
	d="
M30.869419,164.803345 
	C30.989798,165.759415 30.996784,166.502823 31.004431,167.617889 
	C29.364914,166.541931 27.724737,165.094330 26.062391,163.297424 
	C27.132414,163.282196 28.224606,163.616257 29.661713,163.975220 
	C30.311497,164.127090 30.561295,164.323944 30.869419,164.803345 
z"/>
<path fill="#F2F2F1" opacity="1.000000" stroke="none" 
	d="
M50.045555,185.368881 
	C51.899406,186.143951 53.796143,187.270691 55.842682,188.695969 
	C54.024471,187.903183 52.056458,186.811859 50.045555,185.368881 
z"/>
<path fill="#F2F2F1" opacity="1.000000" stroke="none" 
	d="
M47.051559,183.321442 
	C47.648212,183.447601 48.289482,183.893463 48.985649,184.653473 
	C48.392429,184.525482 47.744301,184.083328 47.051559,183.321442 
z"/>
<path fill="#F2F2F1" opacity="1.000000" stroke="none" 
	d="
M21.068733,156.276245 
	C21.664352,156.420746 22.291597,156.888824 22.961966,157.673035 
	C22.370180,157.526047 21.735270,157.062943 21.068733,156.276245 
z"/>
<path fill="#F2F2F1" opacity="1.000000" stroke="none" 
	d="
M23.073509,159.266785 
	C23.669960,159.413361 24.295021,159.884827 24.963383,160.672272 
	C24.371828,160.522751 23.736975,160.057220 23.073509,159.266785 
z"/>
<path fill="#D8D2A9" opacity="1.000000" stroke="none" 
	d="
M43.908920,125.054855 
	C47.045208,124.115471 50.181496,123.176086 53.662079,122.082047 
	C56.052528,122.264099 58.098686,122.600800 60.550152,122.939865 
	C62.473175,123.394897 63.990891,123.847557 65.816864,124.548355 
	C66.730972,125.524384 67.336823,126.252281 67.942665,126.980179 
	C68.586372,127.400467 69.230080,127.820763 69.617851,128.703064 
	C66.880638,130.416260 64.399345,131.667435 61.938889,132.928696 
	C61.959721,132.938782 61.937706,132.898926 61.734215,132.951355 
	C61.530727,133.003799 61.145252,133.171249 60.698837,133.107971 
	C55.303886,133.186646 50.522057,132.752670 46.507641,128.776505 
	C45.534290,127.311935 44.721603,126.183395 43.908920,125.054855 
z"/>
<path fill="#472009" opacity="1.000000" stroke="none" 
	d="
M91.163750,88.143509 
	C80.695122,95.351364 66.641251,94.398888 60.938030,80.867317 
	C67.372673,82.655334 73.294243,84.300781 79.711029,86.384460 
	C83.858757,87.262970 87.511253,87.703239 91.163750,88.143509 
z"/>
<path fill="#0F1F0B" opacity="1.000000" stroke="none" 
	d="
M40.726662,45.835606 
	C41.475021,46.339130 41.915382,47.044666 42.785351,48.215446 
	C46.142166,55.969612 51.454662,60.396610 59.218403,61.593834 
	C60.342018,61.767097 61.663757,60.655598 63.160980,60.004623 
	C64.046532,60.037098 64.948448,60.006344 65.228157,60.408424 
	C65.958374,61.458115 66.416237,62.697266 66.982704,63.860863 
	C57.646862,66.514610 47.415901,62.328999 42.393509,53.782104 
	C41.560249,52.364098 40.800293,50.903019 39.858948,49.112747 
	C39.947178,47.854977 40.182919,46.946297 40.726662,45.835606 
z"/>
<path fill="#03060E" opacity="1.000000" stroke="none" 
	d="
M67.338440,63.870399 
	C66.416237,62.697266 65.958374,61.458115 65.228157,60.408424 
	C64.948448,60.006344 64.046532,60.037098 62.825752,59.848686 
	C59.788860,57.631649 59.225323,54.753654 61.223038,52.432701 
	C62.262291,51.225296 65.103432,50.765800 66.874481,51.149818 
	C71.263672,52.101528 69.699524,56.037598 70.057190,58.961243 
	C70.335167,59.945480 70.613144,60.929722 71.226974,62.018845 
	C70.273262,62.709133 68.983719,63.294533 67.338440,63.870399 
z"/>
<path fill="#0E1526" opacity="1.000000" stroke="none" 
	d="
M97.147034,68.966415 
	C96.457062,69.040848 95.767097,69.115273 94.562225,69.287750 
	C93.716568,69.135025 93.385818,68.884247 93.008606,68.066841 
	C92.291466,65.770950 91.620796,64.041687 91.338318,62.319897 
	C96.090988,57.607918 98.556900,57.004230 101.988693,60.120808 
	C103.691254,66.118103 103.690308,66.113243 97.059486,67.401138 
	C96.989952,67.414642 97.113579,68.422668 97.147034,68.966415 
z"/>
<path fill="#11170E" opacity="1.000000" stroke="none" 
	d="
M90.950119,62.312420 
	C91.620796,64.041687 92.291466,65.770950 92.934952,67.867249 
	C90.913101,65.343712 88.886436,62.474476 86.938324,59.552860 
	C86.065712,58.244213 85.350555,56.830574 84.271675,55.274124 
	C84.237419,54.550690 84.495438,54.017719 84.858513,53.225468 
	C84.963570,52.966187 84.921234,52.954041 85.266502,52.911736 
	C85.740555,51.577209 85.869339,50.284992 86.056389,48.629368 
	C87.539185,45.092075 88.963707,41.918190 90.553848,39.330353 
	C90.851944,40.709087 90.984421,41.501770 91.056351,42.634315 
	C90.332909,44.984360 89.670029,46.994537 88.747917,49.235588 
	C88.622925,50.969166 88.757156,52.471874 88.983124,54.306061 
	C89.699951,57.195831 90.325035,59.754128 90.950119,62.312420 
z"/>
<path fill="#2E7305" opacity="1.000000" stroke="none" 
	d="
M121.717972,79.062943 
	C123.266190,80.051552 124.465210,80.949951 125.141777,81.456886 
	C120.223343,82.619347 115.437820,83.750389 110.539955,84.907982 
	C112.786568,82.728928 114.530243,80.555054 116.744644,79.095215 
	C117.837837,78.374542 119.799873,78.971794 121.717972,79.062943 
z"/>
<path fill="#63813A" opacity="1.000000" stroke="none" 
	d="
M102.406036,108.747025 
	C95.506470,109.861298 88.606895,110.975578 81.300232,111.972961 
	C88.042046,110.237228 95.190956,108.618370 102.714249,107.338394 
	C102.861092,108.033859 102.633560,108.390442 102.406036,108.747025 
z"/>
<path fill="#316603" opacity="1.000000" stroke="none" 
	d="
M92.793488,86.241753 
	C97.635574,85.590714 102.477661,84.939674 107.319740,84.288643 
	C107.390579,84.654770 107.461411,85.020905 107.532249,85.387039 
	C102.942284,86.241547 98.352310,87.096046 93.338684,87.707687 
	C92.874512,87.057137 92.834000,86.649445 92.793488,86.241753 
z"/>
<path fill="#316603" opacity="1.000000" stroke="none" 
	d="
M91.142670,88.112732 
	C87.511253,87.703239 83.858757,87.262970 80.092987,86.446518 
	C83.411285,86.073975 86.842857,86.077599 90.706726,86.481735 
	C91.108459,87.284576 91.077888,87.686905 91.047325,88.089233 
	C91.047325,88.089233 91.121582,88.081963 91.142670,88.112732 
z"/>
<path fill="#327807" opacity="1.000000" stroke="none" 
	d="
M43.765186,67.246582 
	C43.066086,66.618286 42.092606,66.110237 41.748962,65.326157 
	C41.436901,64.614120 41.810204,63.601711 41.881363,62.721722 
	C42.916451,62.837173 43.951538,62.952625 44.986629,63.068077 
	C44.722977,64.113815 44.459324,65.159554 44.081745,66.623077 
	C43.967819,67.040871 43.765186,67.246582 43.765186,67.246582 
z"/>
<path fill="#DFE1CF" opacity="1.000000" stroke="none" 
	d="
M102.873375,108.825256 
	C102.633560,108.390442 102.861092,108.033859 103.170074,107.369812 
	C105.203423,107.016785 107.155304,106.971230 109.527939,106.940628 
	C107.746025,107.604881 105.543373,108.254189 102.873375,108.825256 
z"/>
<path fill="#327807" opacity="1.000000" stroke="none" 
	d="
M55.506531,76.460358 
	C56.736820,76.762978 57.728493,77.272812 58.720161,77.782646 
	C58.468918,78.170395 58.217670,78.558151 57.966427,78.945900 
	C57.066925,78.186462 56.167419,77.427017 55.506531,76.460358 
z"/>
<path fill="#327807" opacity="1.000000" stroke="none" 
	d="
M48.180782,70.804581 
	C49.136032,71.451576 50.091278,72.098579 51.046528,72.745575 
	C50.790779,73.094788 50.535034,73.443993 50.279285,73.793205 
	C49.486931,73.163910 48.694580,72.534607 47.923851,71.477837 
	C47.945477,71.050362 48.180782,70.804581 48.180782,70.804581 
z"/>
<path fill="#472009" opacity="1.000000" stroke="none" 
	d="
M91.354034,88.217789 
	C91.077888,87.686905 91.108459,87.284576 91.167694,86.582977 
	C91.551964,86.249550 91.907562,86.215408 92.528320,86.211502 
	C92.834000,86.649445 92.874512,87.057137 92.933609,87.773819 
	C92.521713,88.170647 92.091225,88.258492 91.354034,88.217789 
z"/>
<path fill="#327807" opacity="1.000000" stroke="none" 
	d="
M52.475677,74.429016 
	C53.028450,74.518547 53.365273,74.790176 53.702091,75.061806 
	C53.499119,75.246651 53.296146,75.431496 53.093178,75.616341 
	C52.815361,75.281265 52.537544,74.946198 52.475677,74.429016 
z"/>
<path fill="#327807" opacity="1.000000" stroke="none" 
	d="
M47.157394,69.827621 
	C47.464260,69.948845 47.718151,70.140305 48.049927,70.603287 
	C48.180782,70.804581 47.945477,71.050362 47.824615,71.175285 
	C47.419758,71.144211 47.168854,70.946266 46.946266,70.380188 
	C46.941490,70.054016 47.157394,69.827621 47.157394,69.827621 
z"/>
<path fill="#327807" opacity="1.000000" stroke="none" 
	d="
M46.153126,68.832596 
	C46.458687,68.957741 46.709030,69.153488 47.030773,69.623734 
	C47.157394,69.827621 46.941490,70.054016 46.829880,70.169075 
	C46.431995,70.131950 46.179337,69.936348 45.950310,69.376266 
	C45.940319,69.055214 46.153126,68.832596 46.153126,68.832596 
z"/>
<path fill="#327807" opacity="1.000000" stroke="none" 
	d="
M45.832985,69.165627 
	C45.434834,69.127602 45.179554,68.932625 44.950825,68.370743 
	C44.941833,68.050392 45.153221,67.831139 45.153221,67.831139 
	C45.459328,67.956825 45.709576,68.153557 46.028545,68.626968 
	C46.153126,68.832596 45.940319,69.055214 45.832985,69.165627 
z"/>
<path fill="#327807" opacity="1.000000" stroke="none" 
	d="
M44.834187,68.158112 
	C44.449146,68.105827 44.215599,67.896843 43.895538,67.442726 
	C43.765186,67.246582 43.967819,67.040871 44.072651,66.938934 
	C44.461895,66.983429 44.703556,67.181908 45.027843,67.631790 
	C45.153221,67.831139 44.941833,68.050392 44.834187,68.158112 
z"/>
<path fill="#3E6806" opacity="1.000000" stroke="none" 
	d="
M126.144821,164.648666 
	C125.123116,165.499420 124.322441,166.103561 123.017532,166.626953 
	C119.997673,166.368057 117.482040,166.189926 115.357964,165.960449 
	C126.676041,163.708405 131.797836,159.244568 132.940018,150.565308 
	C132.708160,148.324295 132.442917,146.473999 132.171326,144.579300 
	C127.303780,145.798096 123.079903,146.855713 118.892471,147.676666 
	C118.928909,147.439987 118.975693,146.963333 119.316345,146.846619 
	C121.302017,146.084503 123.035011,145.598846 124.569969,144.753586 
	C126.523552,143.677811 128.316818,142.310898 130.508881,141.043961 
	C131.273254,140.940979 131.707947,140.863541 132.142639,140.786102 
	C132.142639,140.786102 132.318039,140.858917 132.335114,140.953583 
	C136.171951,153.422470 135.026031,157.892914 126.144821,164.648666 
z"/>
<path fill="#CE0101" opacity="1.000000" stroke="none" 
	d="
M130.179199,141.069504 
	C128.316818,142.310898 126.523552,143.677811 124.569969,144.753586 
	C123.035011,145.598846 121.302017,146.084503 118.944481,146.843750 
	C116.852272,147.495377 115.382271,147.874603 114.109344,148.599777 
	C109.812729,151.047531 106.621597,154.504898 107.144279,159.737518 
	C107.738113,165.682465 108.566177,171.706924 116.200127,173.345703 
	C117.348061,173.592117 118.442268,176.138321 118.731773,177.768036 
	C119.032150,179.458893 118.324478,181.328827 118.057663,183.120453 
	C117.986610,184.137955 117.915543,185.155457 117.617081,186.757782 
	C117.219490,187.886108 117.049294,188.429596 116.879089,188.973083 
	C113.253998,189.682495 109.628899,190.391907 105.349464,191.145599 
	C104.391312,191.333115 104.171600,191.558304 104.035995,191.865463 
	C103.280014,191.930374 102.524025,191.995285 101.299232,191.673889 
	C99.353897,190.857269 97.895256,190.347809 96.397980,190.009354 
	C85.338173,187.509384 73.593918,186.697647 65.404282,177.201828 
	C64.972786,176.701508 63.965851,176.734161 63.275024,176.414490 
	C60.140526,174.964157 57.023342,173.476395 53.603909,171.862381 
	C56.872150,169.772461 58.947163,168.445557 61.244846,167.048798 
	C61.467518,166.978928 61.918995,166.860504 62.100185,167.123718 
	C62.870892,167.589020 63.460411,167.791077 64.064888,168.367752 
	C64.316986,169.671112 64.554123,170.599884 64.791260,171.528641 
	C65.290054,171.506851 65.788857,171.485062 66.287651,171.463272 
	C67.860313,157.353134 69.432976,143.243011 71.005646,129.132874 
	C72.743835,128.081131 74.482025,127.029381 76.803337,126.180969 
	C80.660423,125.313004 83.934402,124.241684 87.576653,123.145195 
	C88.935806,123.043007 89.926689,122.966003 91.266235,122.923172 
	C92.459167,122.669090 93.303429,122.380836 94.147690,122.092583 
	C108.275627,122.092583 122.403564,122.092583 136.796478,122.092583 
	C135.568695,126.012299 134.264526,130.175842 133.033813,134.742325 
	C133.107254,135.145248 133.068741,135.087921 132.737701,135.100861 
	C131.664185,137.099030 130.921692,139.084259 130.179199,141.069504 
z"/>
<path fill="#8F0705" opacity="1.000000" stroke="none" 
	d="
M70.752701,129.068146 
	C69.432976,143.243011 67.860313,157.353134 66.287651,171.463272 
	C65.788857,171.485062 65.290054,171.506851 64.791260,171.528641 
	C64.554123,170.599884 64.316986,169.671112 64.014305,168.040222 
	C63.516544,166.876038 63.084328,166.414017 62.896755,165.655823 
	C66.155991,162.929688 67.637177,155.082504 66.039772,149.722473 
	C67.124298,143.739914 68.187645,138.151382 69.306511,132.271103 
	C66.065521,132.555145 63.991787,132.736877 61.918053,132.918610 
	C64.399345,131.667435 66.880638,130.416260 69.680878,129.008850 
	C70.166489,128.902893 70.333130,128.953156 70.752701,129.068146 
z"/>
<path fill="#891515" opacity="1.000000" stroke="none" 
	d="
M87.208374,123.170372 
	C83.934402,124.241684 80.660423,125.313004 77.155945,126.151932 
	C79.580902,124.896118 82.236366,123.872681 85.656448,122.930077 
	C86.683502,123.064056 86.945938,123.117218 87.208374,123.170372 
z"/>
<path fill="#B5B3A2" opacity="1.000000" stroke="none" 
	d="
M77.659988,118.669525 
	C78.845093,118.549759 79.693390,118.549759 80.541687,118.549759 
	C80.593361,118.812630 80.645035,119.075500 80.696709,119.338371 
	C78.786285,119.920761 76.875862,120.503143 74.965431,121.085533 
	C74.820465,120.769798 74.675499,120.454063 74.530533,120.138329 
	C75.461418,119.688652 76.392296,119.238968 77.659988,118.669525 
z"/>
<path fill="#B5B3A2" opacity="1.000000" stroke="none" 
	d="
M67.958084,126.647697 
	C67.336823,126.252281 66.730972,125.524384 66.114769,124.504684 
	C66.475479,124.100533 66.846558,123.988182 67.630104,123.963806 
	C68.042572,124.051781 68.291023,124.349953 68.291031,124.349953 
	C68.185188,125.005043 68.079346,125.660126 67.958084,126.647697 
z"/>
<path fill="#862925" opacity="1.000000" stroke="none" 
	d="
M87.576653,123.145195 
	C86.945938,123.117218 86.683502,123.064056 86.028160,122.926010 
	C87.105324,122.470856 88.575409,122.100578 90.429871,121.756592 
	C90.814262,121.782890 90.970726,121.963638 90.982239,122.235474 
	C90.993759,122.507309 90.917564,122.889000 90.917564,122.889000 
	C89.926689,122.966003 88.935806,123.043007 87.576653,123.145195 
z"/>
<path fill="#B5B3A2" opacity="1.000000" stroke="none" 
	d="
M67.915184,123.905396 
	C68.239998,123.437729 68.692200,123.116455 69.549675,122.869797 
	C69.954941,122.944405 70.216507,123.199181 70.216507,123.199188 
	C69.752403,123.517403 69.288300,123.835625 68.557602,124.251900 
	C68.291023,124.349953 68.042572,124.051781 67.915184,123.905396 
z"/>
<path fill="#B5B3A2" opacity="1.000000" stroke="none" 
	d="
M69.826630,122.814529 
	C69.947975,122.531723 70.197632,122.378799 70.447281,122.225876 
	C70.491196,122.460266 70.535118,122.694664 70.397766,123.064117 
	C70.216507,123.199181 69.954941,122.944405 69.826630,122.814529 
z"/>
<path fill="#B5B3A2" opacity="1.000000" stroke="none" 
	d="
M72.366409,121.365532 
	C72.585907,121.349648 72.665230,121.430977 72.744553,121.512306 
	C72.571777,121.495781 72.399010,121.479263 72.366409,121.365532 
z"/>
<path fill="#CE0202" opacity="1.000000" stroke="none" 
	d="
M40.245422,119.892654 
	C40.569023,120.268166 40.892624,120.643677 41.120312,121.648247 
	C41.397068,122.848518 41.769737,123.419731 42.142406,123.990952 
	C42.142406,123.990952 42.036171,123.945786 42.007584,124.373337 
	C41.694241,135.189697 41.409481,145.578506 41.083828,156.375122 
	C41.011433,157.875381 40.979935,158.967834 40.606815,160.003754 
	C39.010361,158.912949 37.548584,158.049301 36.533123,156.817657 
	C27.641386,146.033035 21.953203,133.622818 19.305746,120.005386 
	C17.895130,112.749756 15.200370,105.245743 19.056870,97.822220 
	C20.655596,99.009766 22.254326,100.197304 24.026264,102.003395 
	C24.847906,103.058113 25.496340,103.494286 26.144773,103.930450 
	C26.144773,103.930450 26.040745,103.937195 26.170799,104.184311 
	C26.888266,104.609650 27.475679,104.787880 28.063093,104.966110 
	C28.063093,104.966110 28.005150,104.994926 28.077551,105.230560 
	C28.462534,105.633675 28.775116,105.801155 29.087696,105.968636 
	C29.087696,105.968636 29.017141,105.983521 29.091864,106.215042 
	C29.476698,106.616920 29.786812,106.787292 30.096928,106.957657 
	C30.096928,106.957657 30.020910,106.964325 30.095509,107.203598 
	C30.491718,107.606506 30.813328,107.770149 31.134937,107.933792 
	C31.134937,107.933792 31.058119,107.956573 31.123623,108.189758 
	C31.507767,108.593376 31.826408,108.763809 32.145050,108.934235 
	C32.145050,108.934235 32.052029,108.938507 32.116402,109.172485 
	C32.498344,109.583138 32.815918,109.759804 33.133492,109.936462 
	C33.133492,109.936462 33.054016,109.956261 33.107910,110.190994 
	C33.468456,110.606590 33.775112,110.787445 34.081768,110.968300 
	C34.081768,110.968300 34.012836,110.987228 34.078247,111.225128 
	C34.453789,111.633766 34.763912,111.804512 35.074036,111.975258 
	C35.074036,111.975258 35.005444,111.991844 34.974514,112.332977 
	C36.001732,113.761841 37.059883,114.849571 38.118034,115.937302 
	C38.118031,115.937302 38.048119,115.995811 38.008450,116.316055 
	C38.727661,117.721741 39.486542,118.807198 40.245422,119.892654 
z"/>
<path fill="#D31B1A" opacity="1.000000" stroke="none" 
	d="
M18.973930,97.554016 
	C15.200370,105.245743 17.895130,112.749756 19.305746,120.005386 
	C21.953203,133.622818 27.641386,146.033035 36.533123,156.817657 
	C37.548584,158.049301 39.010361,158.912949 40.622498,160.417023 
	C40.967628,162.277954 40.955448,163.669098 40.943268,165.060226 
	C33.539749,161.341171 30.353765,153.986038 26.357929,147.511978 
	C23.221375,142.430130 21.182425,136.670837 18.219822,130.832947 
	C17.732159,129.944839 17.680544,129.436295 17.899664,128.848755 
	C17.818754,128.255997 17.467112,127.742226 16.970760,126.796646 
	C16.768778,125.763008 16.711504,125.161163 16.816530,124.622330 
	C16.869263,124.628464 16.759693,124.571602 16.487930,124.247894 
	C16.243155,123.789955 16.160574,123.598854 16.077993,123.407761 
	C15.693995,115.914131 15.215628,108.423203 15.000842,100.924728 
	C14.954547,99.308487 15.858757,97.665016 16.743063,95.957642 
	C17.737656,96.349403 18.314322,96.817612 18.973930,97.554016 
z"/>
<path fill="#850807" opacity="1.000000" stroke="none" 
	d="
M41.124725,155.967331 
	C41.409481,145.578506 41.694241,135.189697 42.035919,124.323044 
	C42.531620,124.162346 42.970402,124.479469 43.659054,124.925728 
	C44.721603,126.183395 45.534290,127.311935 46.083458,128.805450 
	C44.910637,130.745560 43.270355,132.303146 43.232082,133.899155 
	C43.126526,138.301544 43.691032,142.719971 43.696285,147.397888 
	C43.192131,150.428574 42.982224,153.193405 42.497009,155.964569 
	C41.856045,155.969696 41.490383,155.968506 41.124725,155.967331 
z"/>
<path fill="#861918" opacity="1.000000" stroke="none" 
	d="
M38.086769,115.608856 
	C37.059883,114.849571 36.001732,113.761841 34.995247,112.304428 
	C36.049774,113.049973 37.052639,114.165192 38.086769,115.608856 
z"/>
<path fill="#861918" opacity="1.000000" stroke="none" 
	d="
M40.210098,119.548843 
	C39.486542,118.807198 38.727661,117.721741 38.019775,116.271896 
	C38.772106,117.006683 39.473438,118.105850 40.210098,119.548843 
z"/>
<path fill="#861918" opacity="1.000000" stroke="none" 
	d="
M26.039040,103.657974 
	C25.496340,103.494286 24.847906,103.058113 24.179790,102.303833 
	C24.751173,102.452309 25.342239,102.918900 26.039040,103.657974 
z"/>
<path fill="#A9A998" opacity="1.000000" stroke="none" 
	d="
M34.147404,99.841682 
	C34.355377,100.295380 34.563351,100.749084 34.771324,101.202782 
	C34.463749,101.056831 34.156170,100.910881 33.896847,100.408531 
	C33.945103,100.052132 34.147404,99.841682 34.147404,99.841682 
z"/>
<path fill="#850807" opacity="1.000000" stroke="none" 
	d="
M42.151245,123.623398 
	C41.769737,123.419731 41.397068,122.848518 41.026573,121.909088 
	C41.405861,122.112534 41.782970,122.684189 42.151245,123.623398 
z"/>
<path fill="#A9A998" opacity="1.000000" stroke="none" 
	d="
M26.669376,93.315025 
	C26.167604,93.079636 25.665834,92.844246 25.120884,92.264557 
	C25.077702,91.920250 25.312132,91.693855 25.312130,91.693855 
	C25.817932,91.928284 26.323734,92.162712 26.866226,92.746185 
	C26.902916,93.095245 26.669376,93.315025 26.669376,93.315025 
z"/>
<path fill="#861918" opacity="1.000000" stroke="none" 
	d="
M27.943094,104.675850 
	C27.475679,104.787880 26.888266,104.609650 26.176456,104.132492 
	C26.642405,104.017578 27.232750,104.201584 27.943094,104.675850 
z"/>
<path fill="#A9A998" opacity="1.000000" stroke="none" 
	d="
M23.770081,91.242554 
	C23.452532,91.129555 23.185308,90.944061 22.968531,90.353546 
	C22.968655,90.021019 23.194836,89.786171 23.194836,89.786171 
	C23.520985,89.873100 23.804285,90.035004 24.042374,90.618576 
	C24.040010,90.965263 23.770081,91.242554 23.770081,91.242554 
z"/>
<path fill="#A9A998" opacity="1.000000" stroke="none" 
	d="
M24.960388,92.033340 
	C24.532833,92.044167 24.266565,91.873360 23.907175,91.438278 
	C23.770081,91.242554 24.040010,90.965263 24.178009,90.824875 
	C24.596643,90.844688 24.841413,91.048058 25.181225,91.494217 
	C25.312132,91.693855 25.077702,91.920250 24.960388,92.033340 
z"/>
<path fill="#A9A998" opacity="1.000000" stroke="none" 
	d="
M27.731499,94.260567 
	C27.408302,94.165405 27.143663,93.984573 26.803480,93.516548 
	C26.669376,93.315025 26.902916,93.095245 27.020210,92.984467 
	C27.450405,92.988274 27.709990,93.176430 27.925451,93.752243 
	C27.934649,94.066322 27.731499,94.260567 27.731499,94.260567 
z"/>
<path fill="#A9A998" opacity="1.000000" stroke="none" 
	d="
M22.853119,90.136047 
	C22.548319,90.030067 22.359051,89.809059 22.169783,89.588058 
	C22.417311,89.538094 22.664839,89.488129 23.053600,89.612167 
	C23.194836,89.786171 22.968655,90.021019 22.853119,90.136047 
z"/>
<path fill="#861918" opacity="1.000000" stroke="none" 
	d="
M31.100773,107.640686 
	C30.813328,107.770149 30.491718,107.606506 30.107189,107.167267 
	C30.385050,107.043640 30.725830,107.195610 31.100773,107.640686 
z"/>
<path fill="#861918" opacity="1.000000" stroke="none" 
	d="
M35.035126,111.693512 
	C34.763912,111.804512 34.453789,111.633766 34.088833,111.190987 
	C34.354740,111.083221 34.675480,111.247490 35.035126,111.693512 
z"/>
<path fill="#861918" opacity="1.000000" stroke="none" 
	d="
M34.043816,110.683197 
	C33.775112,110.787445 33.468456,110.606590 33.114029,110.150497 
	C33.379459,110.049553 33.692661,110.223824 34.043816,110.683197 
z"/>
<path fill="#861918" opacity="1.000000" stroke="none" 
	d="
M33.107456,109.640198 
	C32.815918,109.759804 32.498344,109.583138 32.124130,109.126572 
	C32.405468,109.012436 32.743443,109.178185 33.107456,109.640198 
z"/>
<path fill="#861918" opacity="1.000000" stroke="none" 
	d="
M32.097542,108.645126 
	C31.826408,108.763809 31.507767,108.593376 31.122524,108.149719 
	C31.387295,108.036324 31.718666,108.196167 32.097542,108.645126 
z"/>
<path fill="#A9A998" opacity="1.000000" stroke="none" 
	d="
M28.705563,95.298294 
	C28.388756,95.178268 28.140301,94.974808 27.845848,94.474243 
	C27.731499,94.260567 27.934649,94.066322 28.036993,93.968216 
	C28.459536,93.967491 28.730303,94.141693 28.949863,94.725143 
	C28.948084,95.057556 28.705563,95.298294 28.705563,95.298294 
z"/>
<path fill="#861918" opacity="1.000000" stroke="none" 
	d="
M30.056343,106.674507 
	C29.786812,106.787292 29.476698,106.616920 29.097664,106.179459 
	C29.357746,106.072014 29.686752,106.231682 30.056343,106.674507 
z"/>
<path fill="#861918" opacity="1.000000" stroke="none" 
	d="
M29.037405,105.690186 
	C28.775116,105.801155 28.462534,105.633675 28.081764,105.198479 
	C28.338089,105.091095 28.662601,105.251419 29.037405,105.690186 
z"/>
<path fill="#A9A998" opacity="1.000000" stroke="none" 
	d="
M33.843613,100.157028 
	C33.440727,100.135628 33.176632,99.954849 32.950874,99.382439 
	C32.951920,99.045303 33.199421,98.790085 33.199421,98.790085 
	C33.512520,98.914398 33.757072,99.120155 34.040245,99.624519 
	C34.147404,99.841682 33.945103,100.052132 33.843613,100.157028 
z"/>
<path fill="#A9A998" opacity="1.000000" stroke="none" 
	d="
M32.175434,97.814995 
	C32.495308,97.916954 32.754364,98.103409 33.076012,98.582214 
	C33.199421,98.790085 32.951920,99.045303 32.825535,99.175369 
	C32.409592,99.150688 32.166027,98.942192 31.968941,98.353500 
	C31.969427,98.027054 32.175434,97.814995 32.175434,97.814995 
z"/>
<path fill="#A9A998" opacity="1.000000" stroke="none" 
	d="
M31.212858,96.776535 
	C31.523779,96.901718 31.771055,97.104500 32.065060,97.599930 
	C32.175434,97.814995 31.969427,98.027054 31.863874,98.135147 
	C31.453894,98.124664 31.184357,97.951706 30.951214,97.384445 
	C30.952715,97.044540 31.212858,96.776535 31.212858,96.776535 
z"/>
<path fill="#A9A998" opacity="1.000000" stroke="none" 
	d="
M30.163891,95.823730 
	C30.484375,95.922012 30.747801,96.103233 31.083515,96.571960 
	C31.212858,96.776535 30.952715,97.044540 30.819996,97.180931 
	C30.400738,97.155746 30.159081,96.943146 29.961765,96.356079 
	C29.961220,96.032654 30.163891,95.823730 30.163891,95.823730 
z"/>
<path fill="#A9A998" opacity="1.000000" stroke="none" 
	d="
M29.858658,96.135910 
	C29.458702,96.110527 29.201668,95.925751 28.845280,95.491562 
	C28.705563,95.298294 28.948084,95.057556 29.071472,94.936951 
	C29.494621,94.946411 29.742130,95.142433 30.050638,95.614075 
	C30.163891,95.823730 29.961220,96.032654 29.858658,96.135910 
z"/>
<path fill="#931304" opacity="1.000000" stroke="none" 
	d="
M118.251511,183.226257 
	C118.324478,181.328827 119.032150,179.458893 118.731773,177.768036 
	C118.442268,176.138321 117.348061,173.592117 116.200127,173.345703 
	C108.566177,171.706924 107.738113,165.682465 107.144279,159.737518 
	C106.621597,154.504898 109.812729,151.047531 114.109344,148.599777 
	C115.382271,147.874603 116.852272,147.495377 118.603836,146.960480 
	C118.975693,146.963333 118.928909,147.439987 118.587402,147.818756 
	C115.473793,150.724823 112.701698,153.252106 109.663834,156.051926 
	C109.907051,158.832718 110.416039,161.340973 111.007645,164.120575 
	C111.400032,164.584488 111.709808,164.777069 112.010895,164.984833 
	C112.002205,165.000000 112.024902,164.969894 112.209091,165.255569 
	C113.265480,165.703308 114.137672,165.865387 115.004120,166.011169 
	C114.998375,165.994888 114.966408,166.011795 114.966408,166.011795 
	C117.482040,166.189926 119.997673,166.368057 122.765244,166.793396 
	C122.960472,167.441391 122.903748,167.842178 122.649933,168.715042 
	C122.240982,169.467194 122.167603,169.779785 122.232697,170.124908 
	C121.406036,174.713043 120.579376,179.301178 119.641533,184.273651 
	C119.168686,184.216019 118.807014,183.774048 118.251511,183.226257 
z"/>
<path fill="#3E6806" opacity="1.000000" stroke="none" 
	d="
M122.402649,169.950317 
	C122.167603,169.779785 122.240982,169.467194 122.632492,169.018494 
	C122.858940,169.191269 122.779091,169.499893 122.402649,169.950317 
z"/>
<path fill="#8DD53E" opacity="1.000000" stroke="none" 
	d="
M91.338318,62.319897 
	C90.325035,59.754128 89.699951,57.195831 89.042709,53.895187 
	C89.009415,51.770130 89.008286,50.387424 89.007149,49.004719 
	C89.670029,46.994537 90.332909,44.984360 91.304840,42.413368 
	C92.683998,40.233521 93.754097,38.614479 94.824203,36.995441 
	C100.381180,30.416082 114.546227,28.621899 122.696999,34.457031 
	C131.308731,40.622150 134.468201,51.974148 129.942429,61.463734 
	C125.512932,70.751442 114.922691,75.633171 104.901611,72.957367 
	C103.175888,72.496582 101.506973,71.823013 99.605576,70.753784 
	C101.475868,68.578102 104.154655,67.269470 105.483475,65.124527 
	C107.334999,62.135841 105.457085,59.682262 102.048065,59.800529 
	C98.556900,57.004230 96.090988,57.607918 91.338318,62.319897 
M126.013687,41.695572 
	C124.858360,40.120388 123.964462,38.183460 122.457710,37.094540 
	C121.416931,36.342381 119.529213,36.762142 118.019974,36.658207 
	C118.243591,38.093449 118.198128,39.644501 118.754234,40.936642 
	C119.576866,42.848061 120.788803,44.599552 121.908463,46.372738 
	C122.613014,47.488544 123.451866,48.519554 124.230469,49.588612 
	C125.085724,48.332726 126.227516,47.173958 126.697464,45.787472 
	C127.021210,44.832333 126.414345,43.561764 126.013687,41.695572 
z"/>
<path fill="#65C10B" opacity="1.000000" stroke="none" 
	d="
M90.388237,38.744301 
	C88.963707,41.918190 87.539185,45.092075 85.745270,48.816219 
	C85.224335,50.562328 85.072784,51.758186 84.921234,52.954041 
	C84.921234,52.954041 84.963570,52.966187 84.953514,52.945004 
	C84.423546,51.591599 83.524017,50.279682 83.451485,48.923531 
	C83.182411,43.893009 83.185768,38.847916 83.106186,33.389278 
	C86.212944,33.335941 89.300323,33.701622 92.821854,34.112110 
	C92.784019,34.870331 92.312035,35.583744 91.502243,36.724220 
	C90.905693,37.682281 90.646965,38.213291 90.388237,38.744301 
z"/>
<path fill="#2C4962" opacity="1.000000" stroke="none" 
	d="
M101.988693,60.120808 
	C105.457085,59.682262 107.334999,62.135841 105.483475,65.124527 
	C104.154655,67.269470 101.475868,68.578102 99.272095,70.567780 
	C98.629822,70.353668 98.114792,69.831596 97.373405,69.137970 
	C97.113579,68.422668 96.989952,67.414642 97.059486,67.401138 
	C103.690308,66.113243 103.691254,66.118103 101.988693,60.120808 
z"/>
<path fill="#0F1F0B" opacity="1.000000" stroke="none" 
	d="
M90.553848,39.330353 
	C90.646965,38.213291 90.905693,37.682281 91.364853,37.015720 
	C92.380760,36.918251 93.196243,36.956333 94.417961,36.994926 
	C93.754097,38.614479 92.683998,40.233521 91.365395,42.073505 
	C90.984421,41.501770 90.851944,40.709087 90.553848,39.330353 
z"/>
<path fill="#CC0C0D" opacity="1.000000" stroke="none" 
	d="
M61.022175,167.118668 
	C58.947163,168.445557 56.872150,169.772461 53.603909,171.862381 
	C57.023342,173.476395 60.140526,174.964157 63.275024,176.414490 
	C63.965851,176.734161 64.972786,176.701508 65.404282,177.201828 
	C73.593918,186.697647 85.338173,187.509384 96.397980,190.009354 
	C97.895256,190.347809 99.353897,190.857269 100.919701,191.677490 
	C101.008980,192.067398 100.602257,192.118958 99.944366,192.077606 
	C87.603172,190.996811 76.506721,188.064621 66.346718,181.990967 
	C65.784454,181.654861 64.749329,182.109787 63.934303,182.196518 
	C58.675755,178.722931 53.361763,175.329041 48.189762,171.731049 
	C46.460991,170.528397 45.095051,168.804214 43.352940,166.788757 
	C44.118027,165.817490 45.093433,165.375916 46.057205,164.948441 
	C46.045570,164.962540 46.033173,164.949005 46.058262,165.302368 
	C48.886532,170.265213 53.235836,167.660141 57.311989,167.965347 
	C58.785358,167.669342 59.903767,167.394012 61.022175,167.118668 
z"/>
<path fill="#B9D493" opacity="1.000000" stroke="none" 
	d="
M16.654230,124.559326 
	C16.711504,125.161163 16.768778,125.763008 16.875151,127.029526 
	C17.159143,128.105377 17.394037,128.516556 17.628931,128.927734 
	C17.680544,129.436295 17.732159,129.944839 17.860424,130.832138 
	C17.600807,132.539230 17.264540,133.867599 16.870947,135.535431 
	C16.410372,135.889984 16.007120,135.905060 15.053486,135.935120 
	C14.503102,135.950119 14.008812,135.936829 14.008813,135.936829 
	C12.392737,128.889450 10.776661,121.842064 9.121828,114.390915 
	C9.515813,114.015099 9.948554,114.043068 10.706339,114.108482 
	C12.550776,117.119209 14.070169,120.092491 15.833778,123.236763 
	C16.160574,123.598854 16.243155,123.789955 16.498039,124.258255 
	C16.670345,124.535454 16.654230,124.559326 16.654230,124.559326 
z"/>
<path fill="#D11B1B" opacity="1.000000" stroke="none" 
	d="
M64.096695,182.487518 
	C64.749329,182.109787 65.784454,181.654861 66.346718,181.990967 
	C76.506721,188.064621 87.603172,190.996811 99.739426,192.073029 
	C99.857399,192.539001 99.522415,192.968216 99.041824,193.625458 
	C97.888535,193.899811 96.880852,193.946136 95.498077,193.989563 
	C86.458504,191.362869 77.763382,188.833405 69.154503,186.038330 
	C67.359154,185.455429 65.882561,183.890747 64.096695,182.487518 
z"/>
<path fill="#9E1916" opacity="1.000000" stroke="none" 
	d="
M46.068840,164.934341 
	C45.093433,165.375916 44.118027,165.817490 43.081387,166.595688 
	C42.370296,166.516357 41.720436,166.100403 41.006920,165.372345 
	C40.955448,163.669098 40.967628,162.277954 40.964119,160.473557 
	C40.979935,158.967834 41.011433,157.875381 41.083828,156.375122 
	C41.490383,155.968506 41.856045,155.969696 42.564026,156.386230 
	C42.704781,160.000809 42.808613,163.081268 46.068840,164.934341 
z"/>
<path fill="#F5CFCF" opacity="1.000000" stroke="none" 
	d="
M13.774046,136.165955 
	C14.008812,135.936829 14.503102,135.950119 14.750196,135.953323 
	C15.635683,138.073868 16.274076,140.191208 16.905090,142.679459 
	C15.778236,140.831940 14.658759,138.613525 13.774046,136.165955 
z"/>
<path fill="#F5CFCF" opacity="1.000000" stroke="none" 
	d="
M20.988770,150.672485 
	C20.341099,150.221176 19.675297,149.446869 19.015366,148.316010 
	C19.671036,148.756134 20.320837,149.552826 20.988770,150.672485 
z"/>
<path fill="#F2F2F1" opacity="1.000000" stroke="none" 
	d="
M175.343079,177.980057 
	C177.773010,175.066544 180.570602,172.159042 183.667313,169.106750 
	C183.219650,173.804367 180.032333,176.414047 175.343079,177.980057 
z"/>
<path fill="#F2F2F1" opacity="1.000000" stroke="none" 
	d="
M191.324768,160.946838 
	C191.863663,159.204910 192.761246,157.430222 193.761597,155.342102 
	C196.384094,158.193558 194.254150,159.635483 191.324768,160.946838 
z"/>
<path fill="#F2F2F1" opacity="1.000000" stroke="none" 
	d="
M186.292511,166.938751 
	C187.374573,165.303024 188.807831,163.646561 190.576004,161.923843 
	C189.488525,163.544403 188.066116,165.231201 186.292511,166.938751 
z"/>
<path fill="#8DD540" opacity="1.000000" stroke="none" 
	d="
M70.301071,58.987846 
	C69.699524,56.037598 71.263672,52.101528 66.874481,51.149818 
	C65.103432,50.765800 62.262291,51.225296 61.223038,52.432701 
	C59.225323,54.753654 59.788860,57.631649 62.558586,59.982693 
	C61.663757,60.655598 60.342018,61.767097 59.218403,61.593834 
	C51.454662,60.396610 46.142166,55.969612 43.086918,48.360306 
	C48.090374,38.604095 55.738647,32.419880 66.991554,30.128473 
	C70.223763,31.663193 72.752037,33.052734 75.280304,34.442276 
	C73.867050,31.938076 72.453804,29.433876 71.040550,26.929674 
	C71.043762,26.482201 71.046982,26.034725 71.082367,25.253683 
	C82.555984,30.009127 87.173164,48.770416 72.036240,58.911098 
	C71.497238,59.037247 71.015488,59.153580 71.015488,59.153580 
	C71.015488,59.153580 70.544960,59.014454 70.301071,58.987846 
z"/>
<path fill="#03060E" opacity="1.000000" stroke="none" 
	d="
M71.113525,59.290001 
	C71.015488,59.153580 71.497238,59.037247 71.741096,59.082272 
	C71.727158,59.227005 71.469353,59.326714 71.113525,59.290001 
z"/>
<path fill="#891515" opacity="1.000000" stroke="none" 
	d="
M91.266235,122.923172 
	C90.917564,122.889000 90.993759,122.507309 91.060997,122.325394 
	C91.881073,122.110336 92.633911,122.077202 93.767220,122.068329 
	C93.303429,122.380836 92.459167,122.669090 91.266235,122.923172 
z"/>
<path fill="#E5F9CD" opacity="1.000000" stroke="none" 
	d="
M70.685898,26.847942 
	C72.453804,29.433876 73.867050,31.938076 75.280304,34.442276 
	C72.752037,33.052734 70.223763,31.663193 67.402267,30.114214 
	C66.710579,29.191269 66.312126,28.427761 65.797119,27.360435 
	C67.230797,26.959816 68.781013,26.863014 70.685898,26.847942 
z"/>
<path fill="#862925" opacity="1.000000" stroke="none" 
	d="
M130.508881,141.043961 
	C130.921692,139.084259 131.664185,137.099030 132.768158,135.084671 
	C132.827728,136.725876 132.525787,138.396194 132.183258,140.426300 
	C131.707947,140.863541 131.273254,140.940979 130.508881,141.043961 
z"/>
<path fill="#931304" opacity="1.000000" stroke="none" 
	d="
M117.144058,188.820557 
	C117.049294,188.429596 117.219490,187.886108 117.589111,187.139252 
	C117.662025,187.513275 117.535515,188.090668 117.144058,188.820557 
z"/>
<path fill="#CC0C0D" opacity="1.000000" stroke="none" 
	d="
M104.264992,191.801376 
	C104.171600,191.558304 104.391312,191.333115 104.932076,191.132721 
	C105.012177,191.365707 104.787163,191.586288 104.264992,191.801376 
z"/>
<path fill="#CB0102" opacity="1.000000" stroke="none" 
	d="
M43.990532,147.132065 
	C43.691032,142.719971 43.126526,138.301544 43.232082,133.899155 
	C43.270355,132.303146 44.910637,130.745560 46.244125,129.141479 
	C50.522057,132.752670 55.303886,133.186646 60.794300,133.234283 
	C61.694294,133.482849 61.894802,133.307861 61.937706,132.898926 
	C61.937706,132.898926 61.959721,132.938782 61.938889,132.928696 
	C63.991787,132.736877 66.065521,132.555145 69.306511,132.271103 
	C68.187645,138.151382 67.124298,143.739914 66.027519,149.694672 
	C65.994095,150.060913 66.044106,150.027634 65.731071,150.018555 
	C64.948067,150.359360 64.478096,150.709244 64.002403,151.031296 
	C63.996677,151.003448 64.043663,151.035446 63.695705,151.002487 
	C62.561008,151.331161 61.774273,151.692795 60.992699,152.024429 
	C60.997860,151.994431 61.054619,152.016434 60.606102,151.985260 
	C56.313267,151.654755 52.468956,151.355423 48.475945,151.062714 
	C48.327248,151.069321 48.053009,150.953522 47.994110,150.631363 
	C47.274391,149.880066 46.613571,149.450943 45.975906,149.009552 
	C45.999054,148.997299 45.991333,149.049118 45.912430,148.796356 
	C45.539257,148.368546 45.244987,148.193497 44.975166,148.008514 
	C44.999619,147.998550 44.982082,148.048370 44.902489,147.798172 
	C44.532372,147.371185 44.241852,147.194412 43.984451,147.038269 
	C44.017570,147.058884 43.990532,147.132065 43.990532,147.132065 
z"/>
<path fill="#8F0705" opacity="1.000000" stroke="none" 
	d="
M61.734215,132.951355 
	C61.894802,133.307861 61.694294,133.482849 61.240715,133.297562 
	C61.145252,133.171249 61.530727,133.003799 61.734215,132.951355 
z"/>
<path fill="#0F1F0B" opacity="1.000000" stroke="none" 
	d="
M85.266502,52.911736 
	C85.072784,51.758186 85.224335,50.562328 85.686996,49.179623 
	C85.869339,50.284992 85.740555,51.577209 85.266502,52.911736 
z"/>
<path fill="#0F1F0B" opacity="1.000000" stroke="none" 
	d="
M88.747917,49.235588 
	C89.008286,50.387424 89.009415,51.770130 88.950974,53.563709 
	C88.757156,52.471874 88.622925,50.969166 88.747917,49.235588 
z"/>
<path fill="#68C804" opacity="1.000000" stroke="none" 
	d="
M109.929596,155.779388 
	C112.701698,153.252106 115.473793,150.724823 118.550957,148.055450 
	C123.079903,146.855713 127.303780,145.798096 132.171326,144.579300 
	C132.442917,146.473999 132.708160,148.324295 132.600723,150.621658 
	C128.654465,153.119354 125.283806,155.792923 121.449127,157.042175 
	C117.751358,158.246826 113.287834,160.284317 109.929596,155.779388 
z"/>
<path fill="#57AB04" opacity="1.000000" stroke="none" 
	d="
M109.663834,156.051926 
	C113.287834,160.284317 117.751358,158.246826 121.449127,157.042175 
	C125.283806,155.792923 128.654465,153.119354 132.567352,151.012375 
	C131.797836,159.244568 126.676041,163.708405 115.357964,165.960449 
	C114.966408,166.011795 114.998375,165.994888 114.794159,165.751740 
	C113.734932,165.329025 112.879921,165.149460 112.024902,164.969894 
	C112.024902,164.969894 112.002205,165.000000 111.910027,164.731842 
	C111.520241,164.258881 111.222641,164.054047 110.925034,163.849228 
	C110.416039,161.340973 109.907051,158.832718 109.663834,156.051926 
z"/>
<path fill="#EA675A" opacity="1.000000" stroke="none" 
	d="
M48.053009,150.953522 
	C48.053009,150.953522 48.327248,151.069321 48.729874,151.353149 
	C53.044395,153.715851 56.978020,155.112076 61.054619,152.016434 
	C61.054619,152.016434 60.997860,151.994431 61.338333,152.011841 
	C62.467094,151.697983 63.255379,151.366714 64.043663,151.035446 
	C64.043663,151.035446 63.996677,151.003448 64.318855,151.059479 
	C65.108719,150.752899 65.576416,150.390259 66.044106,150.027634 
	C66.044106,150.027634 65.994095,150.060913 66.006348,150.088715 
	C67.637177,155.082504 66.155991,162.929688 62.724861,165.758820 
	C62.111923,166.355179 61.982147,166.589355 61.918995,166.860504 
	C61.918995,166.860504 61.467518,166.978928 61.244846,167.048798 
	C59.903767,167.394012 58.785358,167.669342 57.028450,167.718353 
	C52.937687,166.644333 49.485432,165.796661 46.033173,164.949005 
	C46.033173,164.949005 46.045570,164.962540 46.057205,164.948441 
	C42.808613,163.081268 42.704781,160.000809 42.839333,156.379913 
	C42.982224,153.193405 43.192131,150.428574 43.696281,147.397888 
	C43.990532,147.132065 44.017570,147.058884 44.032406,147.310425 
	C44.358852,147.724121 44.670467,147.886246 44.982079,148.048370 
	C44.982082,148.048370 44.999619,147.998550 45.017971,148.284058 
	C45.354660,148.729431 45.672997,148.889267 45.991333,149.049118 
	C45.991333,149.049118 45.999054,148.997299 46.079338,149.291199 
	C46.790749,150.041245 47.421879,150.497391 48.053009,150.953522 
z"/>
<path fill="#CC0C0D" opacity="1.000000" stroke="none" 
	d="
M62.100185,167.123718 
	C61.982147,166.589355 62.111923,166.355179 62.480217,166.054962 
	C63.084328,166.414017 63.516544,166.876038 63.999344,167.665619 
	C63.460411,167.791077 62.870892,167.589020 62.100185,167.123718 
z"/>
<path fill="#D85755" opacity="1.000000" stroke="none" 
	d="
M17.899664,128.848755 
	C17.394037,128.516556 17.159143,128.105377 17.019859,127.461327 
	C17.467112,127.742226 17.818754,128.255997 17.899664,128.848755 
z"/>
<path fill="#D85755" opacity="1.000000" stroke="none" 
	d="
M16.816530,124.622330 
	C16.654230,124.559326 16.670345,124.535454 16.660236,124.525101 
	C16.759693,124.571602 16.869263,124.628464 16.816530,124.622330 
z"/>
<path fill="#3E6806" opacity="1.000000" stroke="none" 
	d="
M112.209091,165.255569 
	C112.879921,165.149460 113.734932,165.329025 114.799911,165.768036 
	C114.137672,165.865387 113.265480,165.703308 112.209091,165.255569 
z"/>
<path fill="#3E6806" opacity="1.000000" stroke="none" 
	d="
M111.007645,164.120575 
	C111.222641,164.054047 111.520241,164.258881 111.918716,164.716675 
	C111.709808,164.777069 111.400032,164.584488 111.007645,164.120575 
z"/>
<path fill="#E6FACF" opacity="1.000000" stroke="none" 
	d="
M126.118546,42.063869 
	C126.414345,43.561764 127.021210,44.832333 126.697464,45.787472 
	C126.227516,47.173958 125.085724,48.332726 124.230469,49.588608 
	C123.451866,48.519554 122.613014,47.488544 121.908463,46.372738 
	C120.788803,44.599552 119.576866,42.848061 118.754234,40.936642 
	C118.198128,39.644501 118.243591,38.093449 118.019974,36.658207 
	C119.529213,36.762142 121.416931,36.342381 122.457710,37.094540 
	C123.964462,38.183460 124.858360,40.120388 126.118546,42.063869 
z"/>
<path fill="#9E1916" opacity="1.000000" stroke="none" 
	d="
M46.058266,165.302353 
	C49.485432,165.796661 52.937687,166.644333 56.673485,167.739014 
	C53.235836,167.660141 48.886532,170.265213 46.058266,165.302353 
z"/>
<path fill="#8F0705" opacity="1.000000" stroke="none" 
	d="
M60.606102,151.985260 
	C56.978020,155.112076 53.044395,153.715851 48.878571,151.346527 
	C52.468956,151.355423 56.313267,151.654755 60.606102,151.985260 
z"/>
<path fill="#850807" opacity="1.000000" stroke="none" 
	d="
M47.994110,150.631363 
	C47.421879,150.497391 46.790749,150.041245 46.056187,149.303467 
	C46.613571,149.450943 47.274391,149.880066 47.994110,150.631363 
z"/>
<path fill="#8F0705" opacity="1.000000" stroke="none" 
	d="
M63.695705,151.002487 
	C63.255379,151.366714 62.467094,151.697983 61.333176,152.041840 
	C61.774273,151.692795 62.561008,151.331161 63.695705,151.002487 
z"/>
<path fill="#8F0705" opacity="1.000000" stroke="none" 
	d="
M65.731071,150.018555 
	C65.576416,150.390259 65.108719,150.752899 64.324577,151.087341 
	C64.478096,150.709244 64.948067,150.359360 65.731071,150.018555 
z"/>
<path fill="#850807" opacity="1.000000" stroke="none" 
	d="
M44.902485,147.798172 
	C44.670467,147.886246 44.358852,147.724121 43.999290,147.289810 
	C44.241852,147.194412 44.532372,147.371185 44.902485,147.798172 
z"/>
<path fill="#850807" opacity="1.000000" stroke="none" 
	d="
M45.912430,148.796356 
	C45.672997,148.889267 45.354660,148.729431 44.993519,148.294022 
	C45.244987,148.193497 45.539257,148.368546 45.912430,148.796356 
z"/>
</svg>